<?xml version="1.0" encoding="utf-8"?>
<!-- Generator: Adobe Illustrator 19.0.0, SVG Export Plug-In . SVG Version: 6.00 Build 0)  -->
<svg version="1.1" xmlns="http://www.w3.org/2000/svg" xmlns:xlink="http://www.w3.org/1999/xlink" x="0px" y="0px"
	 viewBox="0 0 595 842" style="enable-background:new 0 0 595 842;" xml:space="preserve">
<g id="Layer_2" style="display:none;">
	<linearGradient id="rect4233_1_" gradientUnits="userSpaceOnUse" x1="-59.9702" y1="834.9991" x2="678.1883" y2="-18.3665">
		<stop  offset="0" style="stop-color:#1C1A4E"/>
		<stop  offset="0.3914" style="stop-color:#144172;stop-opacity:0.69"/>
		<stop  offset="0.9951" style="stop-color:#0685AF;stop-opacity:0.212"/>
	</linearGradient>
	<rect id="rect4233" style="display:inline;fill:url(#rect4233_1_);" width="596.275" height="842"/>
</g>
<g id="Layer_3">
	<g>
		<path style="display:none;fill:none;" d="M219.54,1052.208l0.635,1.198C220.106,1053.125,219.894,1052.702,219.54,1052.208z"/>
		<path style="display:none;fill:none;" d="M182.924,960.947c0.985,0.212,1.901,0.389,2.816,0.389
			c-0.527-0.105-0.704-0.177-1.266-0.213C183.981,961.017,183.486,960.947,182.924,960.947z"/>
		<path style="display:none;fill:none;" d="M713.245,1190.229c0-0.282,0-0.455-0.069-0.774
			C712.966,1189.524,713.176,1189.878,713.245,1190.229z"/>
		<path style="display:none;fill:none;" d="M374.973,842c-0.003,0.473-0.018,0.944-0.018,1.418
			c0,121.897,99.22,221.079,221.184,221.079c121.967,0,221.256-99.183,221.256-221.079c0-122.034-99.289-221.29-221.256-221.29
			c-0.381,0-0.758,0.013-1.139,0.014V842H374.973z"/>
		<path style="display:none;fill:none;" d="M203.521,867.08c0.106,0.07,0.106,0.14,0.106,0.14
			C203.628,867.15,203.628,867.15,203.521,867.08z"/>
		<path style="display:none;fill:none;" d="M939.57,594.174c-0.247-0.248-0.352-0.459-0.491-0.602
			C939.219,593.821,939.323,593.926,939.57,594.174z"/>
		<path style="display:none;fill:none;" d="M245.315,982.071c0.774,1.517,1.337,2.817,1.794,3.663
			C246.442,984.184,245.774,983.022,245.315,982.071z"/>
		<path style="display:none;fill:none;" d="M252.428,1003.48c-0.283,0.175-0.634,0.421-0.985,0.703
			C251.794,1004.113,252.145,1004.009,252.428,1003.48z"/>
		<path style="display:none;fill:none;" d="M990.06,727.019c-0.212,0.069-0.456,0.069-0.773,0.173l3.202,0.387
			C991.68,727.405,991.257,727.088,990.06,727.019z"/>
		<path style="display:none;fill:none;" d="M998.229,797.435c-0.352-0.213-0.14-0.528-0.211-0.773l-9.824,5.35
			c0.178,0.212-0.104,0.492,0.354,0.492c0,0,0.104,0,0.175,0c3.379-0.28,16.76-8.098,17.957-10.563l-3.733,2.042
			C1001.61,794.9,1000.379,795.745,998.229,797.435z"/>
		<linearGradient id="SVGID_1_" gradientUnits="userSpaceOnUse" x1="551.5291" y1="1260.2363" x2="1026.606" y2="722.0342">
			<stop  offset="0" style="stop-color:#1C1A4E"/>
			<stop  offset="0.3914" style="stop-color:#144172;stop-opacity:0.69"/>
			<stop  offset="0.9951" style="stop-color:#0685AF;stop-opacity:0.212"/>
		</linearGradient>
		<path style="display:none;fill:url(#SVGID_1_);" d="M1006.608,745.572l-0.844-0.811
			C1006.047,745.114,1006.327,745.432,1006.608,745.572z"/>
		<linearGradient id="SVGID_2_" gradientUnits="userSpaceOnUse" x1="404.6373" y1="1130.5734" x2="1042.2433" y2="408.2465">
			<stop  offset="0" style="stop-color:#1C1A4E"/>
			<stop  offset="0.3914" style="stop-color:#144172;stop-opacity:0.69"/>
			<stop  offset="0.9951" style="stop-color:#0685AF;stop-opacity:0.212"/>
		</linearGradient>
		<path style="display:none;fill:url(#SVGID_2_);" d="M887.936,582.799c0.226-0.084,0.451-0.166,0.681-0.257
			C888.386,582.627,888.159,582.712,887.936,582.799z"/>
		<linearGradient id="SVGID_3_" gradientUnits="userSpaceOnUse" x1="422.2155" y1="1146.0898" x2="1059.8214" y2="423.7629">
			<stop  offset="0" style="stop-color:#1C1A4E"/>
			<stop  offset="0.3914" style="stop-color:#144172;stop-opacity:0.69"/>
			<stop  offset="0.9951" style="stop-color:#0685AF;stop-opacity:0.212"/>
		</linearGradient>
		<path style="display:none;fill:url(#SVGID_3_);" d="M899.504,577.942c1.196-0.986,3.731-2.256,6.759-3.594l16.758-5.563
			c0.989-0.141,2.466-0.985,3.559-0.985c0.351,0,0.527,0.068,0.81,0.211l2.604,3.59l4.79,6.55c2.886,4.085,5.07,7.395,5.949,9.295
			c2.009,1.868,2.994,2.606,3.311,2.606c0.387,0-0.738-1.548-2.008-3.486c-3.239-4.471-7.817-10.528-6.126-10.528h0.071
			l-7.499-9.188c-0.565-0.315-1.021-0.458-1.798-0.458c-2.674,0-6.337,2.393-9.33,3.098l-22.428,7.499
			c0.211,1.513,5.774,0-1.478,3.348c-1.721,0.894-3.329,1.618-4.83,2.206C895.052,580.203,904.613,578.824,899.504,577.942z"/>
		<linearGradient id="SVGID_4_" gradientUnits="userSpaceOnUse" x1="283.2679" y1="1023.4393" x2="920.8738" y2="301.1124">
			<stop  offset="0" style="stop-color:#1C1A4E"/>
			<stop  offset="0.3914" style="stop-color:#144172;stop-opacity:0.69"/>
			<stop  offset="0.9951" style="stop-color:#0685AF;stop-opacity:0.212"/>
		</linearGradient>
		<path style="display:none;fill:url(#SVGID_4_);" d="M754.97,489.215c0.28-0.356,0.457-0.636,0.6-0.987
			C755.25,488.65,755.003,489.002,754.97,489.215z"/>
		<linearGradient id="SVGID_5_" gradientUnits="userSpaceOnUse" x1="370.4551" y1="1100.4004" x2="1008.061" y2="378.0735">
			<stop  offset="0" style="stop-color:#1C1A4E"/>
			<stop  offset="0.3914" style="stop-color:#144172;stop-opacity:0.69"/>
			<stop  offset="0.9951" style="stop-color:#0685AF;stop-opacity:0.212"/>
		</linearGradient>
		<path style="display:none;fill:url(#SVGID_5_);" d="M851.514,557.237c0.316-0.914,0.738-2.465,1.302-5.106
			C852.077,554.351,851.69,555.969,851.514,557.237z"/>
		<linearGradient id="SVGID_6_" gradientUnits="userSpaceOnUse" x1="359.1837" y1="1090.4509" x2="996.7896" y2="368.1241">
			<stop  offset="0" style="stop-color:#1C1A4E"/>
			<stop  offset="0.3914" style="stop-color:#144172;stop-opacity:0.69"/>
			<stop  offset="0.9951" style="stop-color:#0685AF;stop-opacity:0.212"/>
		</linearGradient>
		<path style="display:none;fill:url(#SVGID_6_);" d="M341.014,1112.486c-0.495-0.281-0.985-0.668-1.726-0.947
			C340.097,1111.994,340.59,1112.276,341.014,1112.486z"/>
		<linearGradient id="SVGID_7_" gradientUnits="userSpaceOnUse" x1="415.1924" y1="1139.8905" x2="1052.7983" y2="417.5636">
			<stop  offset="0" style="stop-color:#1C1A4E"/>
			<stop  offset="0.3914" style="stop-color:#144172;stop-opacity:0.69"/>
			<stop  offset="0.9951" style="stop-color:#0685AF;stop-opacity:0.212"/>
		</linearGradient>
		<path style="display:none;fill:url(#SVGID_7_);" d="M1012.243,789.372l-0.951-6.195c-0.598-4.191-1.232-8.907-2.394-12.783
			l-0.741,6.691c-1.688-9.966-5.879-19.153-5.879-28.519c0.565,1.549,1.021,2.041,1.339,2.041c0.492,0,0.667-1.231,1.303-1.515
			c-0.811-2.183-1.972-4.331-2.323-7.323l3.099,2.992c-2.078-2.43-4.016-8.942-5.67-15.527c0.318-4.964-4.648-4.364-7.923-4.895
			c-3.099-0.491-5.809-0.774-7.252-0.774l1.971-0.423c-3.732-0.667-5.492-0.984-6.196-0.984c-2.04,0,3.978,2.112,0.352,2.112
			c-0.529,0-1.128-0.071-2.148-0.139c-8.485-1.412-2.854-3.594-10.528-5.706l-25.067-1.761c-4.226-2.781-6.339-14.858-9.366-22.956
			l-4.085-7.781c-0.845-2.042-3.378-4.189-1.056-6.092l9.437-14.542c2.393-3.204,3.521-3.941,3.979-3.941
			c0.456,0,0.599,0.599,0.879,0.599c0.351,0,1.127-0.777,3.449-4.507c0.071,0.984,0.565,1.195,1.376,1.195
			c0.598,0,1.407-0.14,2.075-0.282c-0.14-0.738,2.43-3.87,4.649-6.901c2.394-3.132,5.634-7.395,4.859-7.395
			c-0.355,0-1.197,0.672-2.96,2.221l5.601-6.865c2.218-2.396,4.611-4.507,1.865-7.186l-8.802-15.35
			c-4.826-7.781-10.071-15.6-15.565-22.708c-0.247-0.248-0.352-0.352-0.491-0.602c0.14,0.143,0.244,0.354,0.491,0.602
			c1.691,2.11,3.1,3.167,3.802,3.167c0.776,0,0.812-1.091-0.208-3.519c-2.712-2.432-8.101-8.275-13.805-15.036l-4.225-5.069
			l-7.252,2.184l-13.38,3.769c0.704,1.794,5.563,0.455,4.471,2.711c-2.007,1.019-5.387,2.887-8.979,3.766
			c-1.796-0.845-2.534-2.499-6.478-2.499c-2.183,0-5.174,0.492-9.788,1.794c0.617-0.992,2.22-1.866,4.208-2.64
			c-4.315,1.601-7.708,2.045-10.263,2.045c-3.136,0-4.931-0.637-5.422-0.637c-0.211-0.316,3.838-1.548,5.633-2.43
			c-6.056,1.162-6.127,1.62-7.184,2.22c-0.388,0.492-0.846,0.704-1.302,0.704c-0.809,0-1.551-0.459-2.289-1.514
			c0.387-0.809,0.738-1.092,1.197-1.092c0.458,0,0.985,0.423,1.408,0.95c1.831-0.387,1.408-0.106,4.436-2.183
			c-0.28,0-0.527,0-0.773,0c-2.712,0-1.62-1.195-2.394-1.867c-0.492,0.212-0.67,0.387-1.128,1.127
			c-0.28,0.143-0.456,0.387-0.703,0.387h-0.139c0,0,0,0-0.071,0c0,0-0.635-0.597-3.699-4.118l2.36,0.635
			c-2.818-2.429-5.351-5.002-8.274-7.289c-0.951,0.88-0.81,3.698,5.879,10.6c-6.194-1.48-7.675-7.538-16.193-14.332
			c-0.143-0.035-0.424-0.035-0.495-0.035c-2.043,0,2.712,1.971,2.712,4.506c-0.107,0.142-0.352,0.213-0.563,0.213
			c-1.866,0-6.867-3.838-8.311-6.374c2.078-7.217,2.994-2.992,5.316-5.775c-0.211,2.148-0.773,4.753-1.971,4.858
			c0.986,0.81,1.76,1.094,2.394,1.094c1.479,0,1.831-2.185,3.135-2.185c0.176,0,0.491,0.071,0.811,0.315
			c1.407-2.007-1.445,0.143-0.635-5.21c-0.352,0.565-0.494,0.671-0.706,0.671c-0.562,0-0.773-1.479-1.477-1.479
			c-0.21,0-0.353,0.211-0.634,0.564c0.211-20.177,7.288-10.917,11.654-28.942c-0.247,0.069-0.457,0.173-0.598,0.173
			c-0.74,0-1.057-1.054-1.128-2.92l1.338-11.126c0.388-4.297,0.388-7.287-0.6-7.287c-0.738,0-1.725,1.513-3.662,5.174
			c0-1.196,0.953-2.745,0.458-3.907l-4.224-2.57c-2.606-1.798-5.069-3.453-7.148-5.141c0.738,0.14,1.196,0.282,1.514,0.282
			c2.111,0-3.449-4.435-1.9-4.435c0.561,0,1.69,0.524,4.012,1.618l-7.04-5.212c3.379,1.057,8.592,3.945,13.343,6.338
			c-9.541-9.365-17.711-16.796-20.738-20.313c-2.289-1.162-3.238-1.517-3.766-1.517c-0.882,0,0.315,1.374-0.459,1.374
			c-0.423,0-1.689-0.528-4.612-2.147c0.422,0.141,0.812,0.141,1.02,0.141c2.043,0-2.885-4.085-6.865-6.586
			c3.204,2.572,3.806,3.696,2.466,3.696c-1.656,0-6.796-2.111-12.569-4.997c-4.471-4.826-8.592-6.304-12.113-6.304
			c-5.527,0-9.329,3.521-9.893,3.521c-0.175,0-0.105-0.105,0.036-0.492c3.132-2.009,6.267-7.921,9.717-8.732
			c-2.183,0.071-3.028,2.007-3.979,2.007c-0.035,0-0.035-0.035-0.107-0.071c-1.303,0.67-2.676,1.125-8.028,5.846l-5.069,7.183
			c-1.091,1.97-1.62,3.66-2.183,5.209c-4.543,4.507-9.19,5.918-10.739,7.394l7.006-7.323c-3.872,3.452-5.457,4.048-6.514,4.048
			c-0.598,0-0.95-0.244-1.443-0.244c-0.986,0-2.604,0.632-6.689,4.365l-1.585,3.589c-1.092,0.707-1.934,1.13-2.5,1.13
			c-0.279,0-0.423-0.176-0.351-0.563c-0.738,1.021-2.008,2.254-3.45,3.591c-0.916,0.916-0.916,0.988-1.162,1.583l-0.565-1.09
			c-0.175,0.846-0.562,1.62-1.441,1.796c0,0.068-0.143,0.068-0.246,0.068c-0.6,0-2.184-0.842-5.178-3.308
			c4.966,5.457,4.437,2.289,6.973,4.472c1.126,1.337,0.458,1.759-0.846,1.759c-1.093,0-2.676-0.351-3.239-0.773
			c2.078-2.536-13.554-6.514-20.278-8.872c-1.48-1.69-1.763-2.324-1.939-3.029c-0.81,0.387-1.725,0.846-2.253,0.987
			c1.795-1.97,1.443-2.465,0.74-3.661c-0.74-2.185-2.396-8.098-2.148-11.691c0.738,1.62,1.408,2.43,1.937,2.43
			c0.774,0,1.267-1.652,1.267-4.822c-0.352,1.337-0.773,1.902-1.126,1.902c-1.865,0-3.944-11.129-5.422-11.129
			c-0.106,0-0.21,0-0.281,0.143c-0.141-4.298,0.175-5.704,0.737-5.704c1.093,0,3.064,4.928,4.367,4.928
			c0.247,0,0.527-0.282,0.67-0.774c-1.479-3.238-1.479-7.218-1.621-10.843c-0.315-5.776-0.916-12.606-2.745-15.529
			c0.282,5.423,0.176,7.359-0.141,7.359c-0.634,0-2.396-9.998-3.521-11.195c-8.311-2.465-7.887-2.643-6.338-2.643
			c0.283,0,0.774,0,1.127,0c1.477,0,2.464-0.244-2.782-2.146c-3.767-0.776-7.781-1.268-10.247-1.268
			c-3.308,0-3.871,0.845,2.325,3.027c-10.985-3.662-17.112-1.864-25.809-5.527c-0.704-0.527-0.247-0.739,0.564-0.739
			c2.5,0,8.978,1.478,10.739,1.478c0.633,0,0.704-0.177-0.28-0.739c-4.155-0.987-6.867-1.267-8.874-1.267
			c-4.999,0-4.999,2.216-11.197,2.216c-1.62,0-3.731-0.139-6.407-0.56c7.815,2.393-0.565,4.153-8.133,4.436
			c-18.839-3.628,7.779-0.108,0.315-3.628l-8.169-0.669c-2.816-0.282-2.568,0.352-2.393-2.465c0.985-1.128,4.364-0.914,7.676-1.2
			c6.83-0.35,15.14-0.35,8.098-2.674l-11.229-0.493c2.358-0.774,6.019-2.077,0.737-3.661c-0.104,0.35-0.563,0.493-1.16,0.493
			c-0.953,0-2.43-0.282-3.982-0.282c-2.676,0-5.771,0.845-7.004,6.162c-3.558,6.302-7.924,13.625-7.572,13.625h0.069
			c0,0.494,0.18,0.67,0.283,0.67c0.706,0,3.203-7.254,4.013-7.254c0,0,0.143,0.105,0.143,0.35
			c-5.95,11.974-3.134,13.594-10.845,25.178c0.739-2.147,0.527-2.817,0-2.817c-0.773,0-2.43,1.584-2.991,1.584
			c-0.319,0-0.354-0.175-0.319-0.669c-3.661,5.141,1.058,2.815-4.084,10.071l-0.526-1.27c-4.121,7.571-2.924,6.127-6.585,6.445
			c-1.761-0.247-4.507-0.318-7.534-0.318c-0.121,0-0.245,0.001-0.366,0.002v160.673c0.38-0.002,0.758-0.014,1.139-0.014
			c121.967,0,221.256,99.256,221.256,221.29c0,121.897-99.289,221.079-221.256,221.079c-121.964,0-221.184-99.183-221.184-221.079
			c0-0.474,0.015-0.945,0.018-1.418H215.34l0.259,10.855c0,1.549-0.107,3.52-0.354,4.787c0.529,1.972-2.394,2.781-4.929,4.014
			c-3.872,1.971-7.042,3.662-6.795,5.424c0.106,0.07,0.106,0.07,0.106,0.14c0,0,0-0.069-0.106-0.14c0-0.071-0.247-0.071-0.458-0.071
			c-0.563,0-1.337,0.142-1.866,0.211c-3.837,3.204-6.02,7.006-11.301,10.107l0.563-2.925c0-0.457-0.28-0.6-0.774-0.6
			c-1.268,0-4.12,1.482-7.252,3.239c-3.417,1.936-9.648,5.6-12.253,6.513c0.703-0.137,0.986-0.28,1.162-0.28
			c1.443,0-11.69,5.353-5.669,8.521l2.043,9.578c2.676,14.434,1.372,2.534,4.295,16.971c0.563,3.238,0.423,4.436-0.107,4.436
			c-0.809,0-2.217-2.287-2.323-3.907c0.246,7.569,2.076,12.921,4.329,20.315c-0.422-1.55-0.598-2.393-0.422-2.393
			c0.071,0,0.282,0.353,0.776,1.302c-0.354,0-0.211,0.949-0.143,1.973c0.877,2.697,1.754,5.92,2.699,9.49
			c0.005-0.006,0.006-0.019,0.013-0.019v0.068c-0.005-0.017-0.009-0.033-0.013-0.05c-0.039,0.048,0.006,0.264-0.058,0.264
			c-1.055-3.805-2.075-7.255-2.641-9.509c0.283,2.465,1.339,6.407,2.396,10.704c0.104,0.141,0.104,0.424,0.14,0.704
			c0.846,3.381,1.62,6.76,1.902,8.941l-2.114-1.196c-1.057,4.508,4.261,5.211,9.648,5.211c1.408,0,2.64,0,3.906-0.141
			c0.987,0.141,1.938,0.141,2.888,0.141c4.754,0,7.148-0.28,6.725-0.632c9.648,1.899,27.57,3.87,36.054,4.363
			c0.458-0.071,0.881-0.141,1.268-0.141c3.485,0,3.309,4.226,5.21,6.833c1.199,2.603,2.184,5.068,3.17,6.969
			c0.458,0.951,1.127,2.112,1.794,3.663c-0.457-0.846-1.02-2.146-1.794-3.663c-0.598-0.984-1.058-1.617-1.197-1.617
			c-0.142,0,0.069,0.633,0.845,1.617c2.746,6.06,7.747,12.925,6.619,13.028c1.128,1.973,1.196,2.888,1.268,4.016
			c0.458,1.232-0.141,2.322-2.465,4.365c-0.212,0,0.351,0.703,1.021,0.703c0.037,0,0.037,0,0.037,0
			c0.352-0.282,0.703-0.528,0.985-0.703c-0.283,0.528-0.634,0.633-0.985,0.703c-3.522,2.887-9.719,11.021-14.225,17.569
			c-5.212,7.148-10.916,15.353-20.142,26.091l2.465,4.364c0.354,0.494,0.566,0.917,0.635,1.198l-0.635-1.198
			c-0.914-1.233-2.465-3.026-4.083-4.505c0.178-0.777,0.493-1.408,0.705-1.902l-1.337,1.902
			c12.182,18.943,19.152,28.836,29.151,38.942c-1.548-0.773-1.899,0-4.436-2.747c4.225,4.93,10.775,15.844,16.267,19.999
			c-1.196-2.219-1.409-3.206-0.845-3.206c0.423,0,1.481,0.81,2.608,1.938c0.599,0.846,1.336,1.199,2.254,1.199
			c2.92,0,7.252-3.065,9.928-3.065c0.141,0,0.212,0,0.387,0l0.177,0.178l21.194-7.186c0.635-0.104,1.125-0.173,1.479-0.173
			c2.677,0-6.477,2.287-4.015,2.569c0.495,0.282,1.163,0.351,2.149,0.351c6.127,0,21.232-5.141,21.899-5.141
			c0.106,0,0.106,0.071,0.106,0.071c1.058-1.091,2.043-1.339,2.854-1.339c0.422,0,0.773,0.034,0.913,0.034
			c0.246,0,0.423-0.034,0.423-0.173c5.177,4.364,0.952,3.627,4.331,6.829c6.479,4.579,13.099,8.45,20.034,12.43
			c0.177,0.317,0.387,0.457,0.563,0.599c-0.036,0-0.036,0-0.036,0c-0.774,0,1.129,3.311-0.316,3.311
			c-0.142,0-0.458-0.071-0.775-0.248c5.881,4.048,2.851,9.542,2.64,15.07l-0.351,4.683l-10.702,36.652
			c-0.108-0.315-0.283-0.458-0.424-0.458c-0.774,0-2.183,2.394-2.923,2.394c-0.316,0-0.387-0.458-0.387-1.725l-0.985,4.472
			l4.61,3.38l10.741,8.204l19.892,14.682c-1.442-1.689-1.583-2.322-0.916-2.322c2.325,0,14.646,8.027,17.642,8.027
			c0.387,0,0.526-0.071,0.634-0.142c1.408,0.81,2.676,1.725,4.084,2.5l3.801-2.993c0.636-0.317,1.269-0.527,1.585-0.527h0.106
			c0.563,0.141,0.704,0.667,1.337,0.667c0.388,0,1.058-0.28,2.29-0.984c12.921-11.795,26.794-21.97,37.075-30.667
			c0,0,0.176,0.387-0.283,1.162c0.212-0.071,0.459-0.071,0.563-0.071c5.037,0,12.922,5.072,21.479,7.817l12.744,4.296
			c1.831,0.705,4.155,1.021,5.775,1.759l1.126,4.227l0.211,0.951c-0.105,0-0.211,0-0.211,0c-0.141,0-0.209,0-0.352,0
			c-0.281,0-0.703-0.248-1.269-2.111c0.247,7.567,1.411,7.567,2.397,8.729l1.056,9.086l-1.198-2.358
			c2.535,10.562,1.198,20.843,4.507,32.777l0.071,0.67c-0.071,0.14-0.141,0.14-0.211,0.14c-0.564,0-1.094-2.322-1.691-3.941
			l1.375,9.329c0.387,2.995,5.42,1.9,7.85,3.204c3.662,0.845,6.725,1.023,10.001,1.479c2.182,0.354,4.26,1.021,6.479,1.48
			c-0.141,0.494-0.812,0.881-2.678,0.881c-0.633,0-1.268-0.107-2.109-0.179c4.646,1.549,7.604,1.763,10.208,1.763
			c1.338,0,2.464,0,3.839,0c2.287,0,4.823,0.209,8.414,1.196c2.247,0.473,5.724,1.787,6.598,2.323c0.012,0,0.024,0,0.024,0
			s-0.011,0-0.024,0c0.167,0.102,0.249,0.18,0.198,0.214c0.669-0.071,1.513-0.071,2.395-0.071c2.851,0,6.688,0.279,10.457,0.81
			c0.176,0,0.281-0.282,0.492-0.282c0.635,0.068,1.198,0.282,1.762,0.387l2.042-3.803c0.211-0.422,0.563-0.773,0.702-1.231
			l3.521-6.27c1.41-1.405,3.45-3.978,6.551-8.167l10.279-18.697c3.521-4.364,4.259-12.182,9.577-12.182
			c0.81,0,1.762,0.143,2.816,0.529c4.263,0.244,9.684,0.598,14.929,0.598c2.114,0,4.225-0.071,6.198-0.211l10.14-0.494l4.931-0.279
			l2.393,4.119l20.563,36.617l5.527,9.753c0.387,0,0.737,0,1.021,0c3.029,0,6.618-0.917,9.825-1.516
			c5.666-0.878,11.089-2.146,16.512-3.449c1.654-0.28,3.379-0.528,4.929-0.667c7.854,1.125-12.956,4.116-6.902,4.894
			c-0.773-2.36,9.086-2.22,26.128-7.219l0.984,0.317c6.62-3.205,16.126,0.245,14.156-11.479l-0.635,0.104
			c-0.705-9.788,5.352-18.521,2.465-23.521l2.605-6.159c-1.762-8.66,1.83-12.5,1.125-20.81c-0.069-0.352-0.279-0.705-0.069-0.774
			c0.069,0.319,0.069,0.492,0.069,0.774c0.071,0.212,0.071,0.247,0.107,0.387c9.047-3.378,23.836-12.851,28.767-13.202
			c2.604-2.676,5.138-3.627,7.604-3.627c4.93,0,9.508,4.05,12.535,5.635l2.533,2.004c-0.423,0.285-0.845,0.495-1.477,0.495
			c-0.354,0-0.776-0.107-1.057-0.21c9.434,6.021,19.647,17.357,30.315,22.074l5.246,4.154c1.268-0.703,2.43-1.584,3.662-2.217
			c5.492-0.07,10.984-2.467,16.62-9.226c8.237-5.423,16.123-11.408,23.589-17.394c2.993-2.324,6.127-4.365,9.19-6.689
			l-16.585-56.404c0.985-1.305,2.078-2.535,3.1-3.805c9.752-8.8,19.259-17.956,27.989-27.92l56.829,16.619
			c13.205-16.725,25.104-34.4,35.526-52.989l-1.269-1.62l-13.307-17.533l-13.944-17.783l-6.62-8.201
			c-2.112-2.643,1.586-6.092,2.253-9.157c2.608-6.267,5.424-12.604,7.078-18.695l0.388-1.232c1.688-4.364,3.873-8.378,5.351-12.816
			l11.55-1.266c0.141,0.387,0.424,0.703,1.338,0.703c0.352,0,0.773-0.107,1.127-0.211c6.794-1.302,14.049-2.147,21.16-3.063
			l23.626-2.572c3.732-13.236,6.619-26.898,9.014-40.665c0.844-4.329,1.584-8.414,1.972-12.357c0.423-3.207,1.092-6.339,1.479-9.648
			l-52.004-28.449c0.387-7.358,1.021-14.506,1.021-21.969c0-7.572-0.634-14.755-1.021-22.183l17.569-9.612l-2.324,1.866
			c2.712-1.866,6.126-3.31,7.57-3.31c0.703,0,0.88,0.319,0.563,0.914l8.205-5.561l0.423,1.76
			c6.653-4.049,13.166-7.322,20.985-11.372C1012.525,793.21,1012.983,791.625,1012.243,789.372z M182.924,960.947
			c0.563,0,1.057,0.069,1.55,0.176c0.563,0.036,0.739,0.107,1.266,0.213C184.825,961.336,183.909,961.159,182.924,960.947z
			 M990.06,727.019c1.196,0.069,1.619,0.387,2.429,0.56l-3.202-0.387C989.604,727.088,989.849,727.088,990.06,727.019z
			 M988.724,802.504c-0.071,0-0.175,0-0.175,0c-0.458,0-0.177-0.28-0.354-0.492l9.824-5.35c0.071,0.245-0.141,0.561,0.211,0.773
			c2.149-1.69,3.381-2.535,4.719-3.452l3.733-2.042C1005.483,794.406,992.102,802.224,988.724,802.504z"/>
		<linearGradient id="SVGID_8_" gradientUnits="userSpaceOnUse" x1="565.0826" y1="1272.2002" x2="1202.6885" y2="549.8734">
			<stop  offset="0" style="stop-color:#1C1A4E"/>
			<stop  offset="0.3914" style="stop-color:#144172;stop-opacity:0.69"/>
			<stop  offset="0.9951" style="stop-color:#0685AF;stop-opacity:0.212"/>
		</linearGradient>
		<path style="display:none;fill:url(#SVGID_8_);" d="M972.246,811.378c-0.986,0.634-1.974,1.373-2.676,2.147L972.246,811.378z"/>
		<linearGradient id="SVGID_9_" gradientUnits="userSpaceOnUse" x1="149.9098" y1="905.7226" x2="787.5157" y2="183.3957">
			<stop  offset="0" style="stop-color:#1C1A4E"/>
			<stop  offset="0.3914" style="stop-color:#144172;stop-opacity:0.69"/>
			<stop  offset="0.9951" style="stop-color:#0685AF;stop-opacity:0.212"/>
		</linearGradient>
		<path style="display:none;fill:url(#SVGID_9_);" d="M169.087,883.555c0.246-0.068,0.669-0.137,1.092-0.352
			C169.896,883.274,169.474,883.418,169.087,883.555z"/>
		<linearGradient id="SVGID_10_" gradientUnits="userSpaceOnUse" x1="186.7977" y1="938.2839" x2="458.3632" y2="630.6345">
			<stop  offset="0" style="stop-color:#1C1A4E"/>
			<stop  offset="0.3914" style="stop-color:#144172;stop-opacity:0.69"/>
			<stop  offset="0.9951" style="stop-color:#0685AF;stop-opacity:0.212"/>
		</linearGradient>
		<path style="display:none;fill:url(#SVGID_10_);" d="M176.833,949.54c-0.008,0-0.009,0.013-0.013,0.019
			c0.005,0.017,0.009,0.033,0.013,0.05V949.54z"/>
		<path style="display:none;fill:none;" d="M374.973,842H595V622.142C474.032,622.757,375.737,720.998,374.973,842z"/>
		<path style="display:none;fill:none;" d="M216.162,830.532c0.141-1.48,0.634-2.885,1.409-3.802
			c0.705-3.312-3.662-3.312-5.669-4.296c-2.64-1.164-8.451-4.261-12.852-6.973c1.936,0.705,4.332,1.902,5.422,1.902
			c0.247,0,0.283,0,0.493-0.071c-5.704-4.364-7.71-4.364-13.59-6.9c1.301,0-10.845-8.24-19.928-14.822l-4.015-1.587l-0.176-2.358
			c-0.105-1.268-0.459-1.654-0.95-1.935c-0.071-0.034-0.142-0.07-0.211-0.07c-0.563,0-1.021,0.423-1.551,0.423
			c0,0-0.211,0-0.28-0.071c5.562-14.892,2.605-32.461,8.52-43.378c-0.211,2.569-0.881,9.506-0.14,9.506
			c0.211,0,0.668-0.846,1.337-2.817c2.853-4.364,2.781-8.025,3.662-14.786l1.479-10.917c0.634-1.829,0.563-4.364,1.795-5.632
			l7.183-0.563l-6.725-2.111c0.458,0.069,0.985,0.069,1.548,0.069c5.07,0,12.675-1.27,16.621-1.974
			c2.181-0.388,4.224-0.667,5.492-0.667c1.266,0,1.832,0.246,1.477,0.951c4.754-1.482,17.043-0.951,15.07-3.556l15.069-0.813
			c3.347-1.125,2.185-3.661,5.636-11.122c1.899-5.776,5.915-13.522,7.288-15.952l2.711-3.804c0.245-1.161-0.494-2.252-0.494-3.343
			c-0.915-0.634-4.788-5.844-5.952-5.844c-0.175,0-0.175,0.14-0.247,0.456c2.64,5.808,4.719,4.083,4.79,5.879
			c-0.809-0.881-1.48-1.054-1.938-1.054c-0.211,0-0.387,0-0.387,0c-2.533-3.734-5.492-7.747-4.084-7.747
			c0.493,0,1.339,0.424,3.03,1.478c-4.438-6.937-7.958-9.438-12.042-12.462c-1.974-1.34-4.015-2.852-6.48-5.213l-3.732-3.944
			l-6.585-8.379c0.318,0.142,0.599,0.142,0.81,0.142c1.128,0-1.691-2.182-3.802-8.169l6.196-14.436
			c4.295-6.441,6.057-8.24,6.972-8.24c1.057,0,0.985,2.394,2.113,2.466c3.486-6.198,8.592-13.556,9.365-17.111l7.288-5.914
			c-1.092,0.738-1.726,1.126-1.901,1.126c-1.196,0,5.459-8.381,7.746-11.83l-2.358,3.977c0,0,0.071,0,0.14,0
			c1.691,0,4.648-9.083,9.578-9.083c0.563,0,1.268,0.104,1.937,0.527c-1.092-0.774-2.641-1.691-4.084-1.691
			c-0.67,0-1.269,0.214-1.832,0.603l-7.182,8.168c2.569-3.098,4.822-11.408,10.387-11.408c1.126,0,2.288,0.352,3.661,1.091
			c-1.021,0.705,3.169,2.221,8.452,3.943l11.864,3.662c2.465,0.914,4.259,1.196,5.528,1.196c1.408,0,2.289-0.387,3.064-0.387
			c0.245,0,0.457,0,0.808,0.176c-0.071,1.057,9.577,3.099,5.354,3.099c-0.071,0-0.283,0-0.423,0
			c-2.289-0.247-4.648-2.43-8.521-2.534c4.014,1.899,3.027,3.378,11.971,4.717c0.561,0.071,0.845,0.071,1.304,0.071
			c2.709,0,2.147-1.479,3.626-1.479c0.773,0,2.042,0.387,4.436,1.407c-1.336,0.071-1.867,0.703-4.085,0.703
			c-0.281,0-0.493,0-0.845,0l8.029,3.345l-0.142-1.935c0.915,0.774,0.388,0.774,0.844,1.127c0.459-1.761,2.042-3.592,3.521-5.423
			c2.676-3.099,5.916-6.831,6.056-8.451c4.331-4.611,10.845-8.836,12.183-9.788l-0.211,0.494c0.88-0.565,1.865-1.058,2.676-1.9
			l-0.985-3.17l-3.523-7.677l0.39,0.214c-0.881-3.733-3.769-12.469-6.021-16.76c-1.691-10.001,5.563-4.438,0.14-15.214
			c-1.831-6.23-4.293-11.443-6.056-14.646c0.881-1.477,0.881-2.252-0.069-2.252c-0.493,0-1.199,0.211-2.253,0.775
			c25.42-17.958,31.759-25.633,54.292-35.915c3.027-2.744,0.88-2.042,7.535-6.337l3.134-1.867c0.95,0.53,2.007,1.584,3.063,2.394
			l6.127,4.894l10.352,8.17l15.843,12.182c9.295,7.115,10.211,9.296,12.745,9.296c1.34,0,3.026-0.491,6.303-1.268
			c-3.979,2.254-2.923,2.36-1.373,2.36c0.247,0,0.494,0,0.774,0c0.599,0,1.232,0.141,1.407,0.315c5.072-3.94,7.57-1.69,8.557-5
			c-0.633-0.632-0.845-1.338-2.147-1.338c-1.021,0-2.677,0.493-5.88,1.552c6.725-3.77,18.803-8.028,19.434-8.311
			c1.304-0.914,0.67-2.993,1.339-4.261c0.529-3.027,1.126-6.231,1.725-8.379c-0.352,1.23-0.634,1.725-0.842,1.725
			c-0.354,0-0.423-2.218-0.494-4.577c0.141,0.105,0.211,0.143,0.423,0.143c2.252,0,3.66-10.563,3.66-18.803l-1.408-1.268
			c0.67-2.183,1.408-3.097,2.255-6.407c0.845-4.227-4.016-8.732,2.181-18.626c0.917,0.104,1.903,0.354,3.523,0.354
			c0.423,0,0.914,0,1.408,0l19.753-7.007c5.457-1.656,10.948-3.454,16.125-3.591l8.414,0.702c2.748-0.702,11.514-2.994,6.55-2.994
			c-0.774,0-1.76,0.071-3.028,0.178l16.653-1.548l6.937-0.706c1.974,0.564,2.394,3.945,3.662,5.565
			c3.732,7.815,6.478,13.801,6.478,15.844c7.958,8.66,18.311,29.506,21.902,29.506c0.282,0,0.563-0.141,0.774-0.423
			c1.175-0.348,9.495-0.829,16.534-0.845V305H101v537h114.34l-0.023-0.975L216.162,830.532z M249.365,582.659
			c0,0-0.108,0.142-0.211,0.142L249.365,582.659z"/>
		<path style="display:none;fill:none;" d="M262.251,575.686c0.667,0.352,1.09,0.774,1.232,0.774
			C262.99,576.074,262.638,575.899,262.251,575.686z"/>
		<linearGradient id="SVGID_11_" gradientUnits="userSpaceOnUse" x1="45.5024" y1="813.561" x2="683.1083" y2="91.2342">
			<stop  offset="0" style="stop-color:#1C1A4E"/>
			<stop  offset="0.3914" style="stop-color:#144172;stop-opacity:0.69"/>
			<stop  offset="0.9951" style="stop-color:#0685AF;stop-opacity:0.212"/>
		</linearGradient>
		<path style="display:none;fill:url(#SVGID_11_);" d="M249.365,582.659l-0.211,0.142
			C249.257,582.801,249.365,582.659,249.365,582.659z"/>
		<linearGradient id="SVGID_12_" gradientUnits="userSpaceOnUse" x1="151.7802" y1="907.3737" x2="789.3862" y2="185.0468">
			<stop  offset="0" style="stop-color:#1C1A4E"/>
			<stop  offset="0.3914" style="stop-color:#144172;stop-opacity:0.69"/>
			<stop  offset="0.9951" style="stop-color:#0685AF;stop-opacity:0.212"/>
		</linearGradient>
		<path style="fill:url(#SVGID_12_);" d="M595,622.142V461.469c-7.039,0.016-15.359,0.498-16.534,0.845
			c-0.212,0.282-0.492,0.423-0.774,0.423c-3.592,0-13.944-20.846-21.902-29.506c0-2.043-2.745-8.028-6.478-15.844
			c-1.268-1.62-1.688-5.001-3.662-5.565l-6.937,0.706l-16.653,1.548c1.268-0.107,2.254-0.178,3.028-0.178
			c4.964,0-3.802,2.292-6.55,2.994l-8.414-0.702c-5.177,0.137-10.668,1.936-16.125,3.591l-19.753,7.007c-0.494,0-0.985,0-1.408,0
			c-1.619,0-2.606-0.25-3.523-0.354c-6.196,9.894-1.336,14.398-2.181,18.626c-0.847,3.311-1.585,4.225-2.255,6.407l1.408,1.268
			c0,8.239-1.408,18.803-3.66,18.803c-0.212,0-0.282-0.037-0.423-0.143c0.071,2.359,0.141,4.577,0.494,4.577
			c0.208,0,0.49-0.494,0.842-1.725c0-0.037,0-0.141,0.071-0.21c-0.071,0.069-0.071,0.173-0.071,0.21
			c-0.599,2.148-1.195,5.352-1.725,8.379c-0.669,1.268-0.035,3.347-1.339,4.261c-0.631,0.282-12.709,4.541-19.434,8.311
			c3.203-1.059,4.859-1.552,5.88-1.552c1.302,0,1.514,0.706,2.147,1.338c-0.986,3.31-3.484,1.06-8.557,5
			c-0.176-0.175-0.809-0.315-1.407-0.315c-0.28,0-0.527,0-0.774,0c-1.55,0-2.605-0.106,1.373-2.36
			c-3.276,0.776-4.963,1.268-6.303,1.268c-2.534,0-3.45-2.181-12.745-9.296l-15.843-12.182l-10.352-8.17l-6.127-4.894
			c-1.057-0.81-2.113-1.863-3.063-2.394l-3.134,1.867c-6.655,4.295-4.508,3.593-7.535,6.337
			c-22.533,10.282-28.872,17.957-54.292,35.915c1.054-0.565,1.76-0.775,2.253-0.775c0.95,0,0.95,0.775,0.069,2.252
			c1.763,3.203,4.225,8.416,6.056,14.646c5.424,10.776-1.831,5.213-0.14,15.214c2.253,4.291,5.141,13.026,6.021,16.76l-0.39-0.214
			l3.523,7.677l0.985,3.17c-0.811,0.843-1.796,1.336-2.676,1.9l0.211-0.494c-1.338,0.952-7.852,5.177-12.183,9.788
			c-0.14,1.62-3.38,5.353-6.056,8.451c-1.479,1.831-3.063,3.662-3.521,5.423c-0.456-0.352,0.071-0.352-0.844-1.127l0.142,1.935
			l-8.029-3.345c0.352,0,0.563,0,0.845,0c2.218,0,2.749-0.632,4.085-0.703c-2.394-1.021-3.662-1.407-4.436-1.407
			c-1.478,0-0.917,1.479-3.626,1.479c-0.459,0-0.742,0-1.304-0.071c-8.944-1.339-7.957-2.817-11.971-4.717
			c3.873,0.105,6.232,2.287,8.521,2.534c0.14,0,0.352,0,0.423,0c4.224,0-5.425-2.042-5.354-3.099
			c-0.351-0.176-0.563-0.176-0.808-0.176c-0.775,0-1.656,0.387-3.064,0.387c-1.269,0-3.064-0.282-5.528-1.196l-11.864-3.662
			c-5.283-1.723-9.472-3.238-8.452-3.943c-1.373-0.739-2.535-1.091-3.661-1.091c-5.565,0-7.817,8.311-10.387,11.408l7.182-8.168
			c0.563-0.389,1.162-0.603,1.832-0.603c1.444,0,2.993,0.917,4.084,1.691c0.387,0.213,0.738,0.388,1.232,0.774
			c-0.142,0-0.565-0.423-1.232-0.774c-0.669-0.423-1.374-0.527-1.937-0.527c-4.93,0-7.886,9.083-9.578,9.083c-0.069,0-0.14,0-0.14,0
			l2.358-3.977c-2.287,3.449-8.942,11.83-7.746,11.83c0.176,0,0.81-0.388,1.901-1.126l-7.288,5.914
			c-0.773,3.556-5.879,10.913-9.365,17.111c-1.127-0.071-1.056-2.466-2.113-2.466c-0.915,0-2.677,1.799-6.972,8.24l-6.196,14.436
			c2.111,5.987,4.93,8.169,3.802,8.169c-0.211,0-0.492,0-0.81-0.142l6.585,8.379l3.732,3.944c2.465,2.361,4.506,3.873,6.48,5.213
			c4.084,3.024,7.604,5.525,12.042,12.462c-1.691-1.054-2.537-1.478-3.03-1.478c-1.408,0,1.551,4.013,4.084,7.747
			c0,0,0.176,0,0.387,0c0.458,0,1.129,0.173,1.938,1.054c-0.071-1.796-2.15-0.071-4.79-5.879c0.071-0.316,0.071-0.456,0.247-0.456
			c1.164,0,5.037,5.21,5.952,5.844c0,1.091,0.738,2.182,0.494,3.343l-2.711,3.804c-1.373,2.43-5.389,10.176-7.288,15.952
			c-3.451,7.461-2.289,9.997-5.636,11.122l-15.069,0.813c1.973,2.604-10.316,2.073-15.07,3.556c0.354-0.705-0.211-0.951-1.477-0.951
			c-1.267,0-3.31,0.279-5.492,0.667c-3.945,0.704-11.551,1.974-16.621,1.974c-0.563,0-1.09,0-1.548-0.069l6.725,2.111l-7.183,0.563
			c-1.232,1.268-1.161,3.803-1.795,5.632l-1.479,10.917c-0.881,6.761-0.81,10.422-3.662,14.786
			c-0.669,1.972-1.125,2.817-1.337,2.817c-0.741,0-0.071-6.936,0.14-9.506c-5.915,10.917-2.958,28.486-8.52,43.378
			c0.069,0.071,0.28,0.071,0.28,0.071c0.53,0,0.988-0.423,1.551-0.423c0.069,0,0.14,0.036,0.211,0.07
			c0.491,0.281,0.845,0.668,0.95,1.935l0.176,2.358l4.015,1.587c9.083,6.582,21.229,14.822,19.928,14.822
			c5.88,2.536,7.886,2.536,13.59,6.9c-0.21,0.071-0.246,0.071-0.493,0.071c-1.09,0-3.486-1.197-5.422-1.902
			c4.4,2.712,10.211,5.809,12.852,6.973c2.007,0.984,6.374,0.984,5.669,4.296c-0.774,0.917-1.268,2.321-1.409,3.802l-0.845,10.493
			L215.34,842h159.633C375.737,720.998,474.032,622.757,595,622.142z"/>
	</g>
	<g>
		<path style="display:none;fill:none;" d="M-185.268-142.355c0.367,0.193,0.599,0.426,0.677,0.426
			C-184.862-142.142-185.055-142.238-185.268-142.355z"/>
		<path style="display:none;fill:none;" d="M-228.881,69.455c0.542,0.116,1.045,0.214,1.548,0.214
			c-0.29-0.059-0.387-0.098-0.696-0.117C-228.3,69.493-228.572,69.455-228.881,69.455z"/>
		<path style="display:none;fill:none;" d="M214.038-17.655c0,0,0.057,0,0.096,0c1.858-0.154,9.214-4.452,9.872-5.808l-2.052,1.123
			c-0.735,0.504-1.412,0.969-2.594,1.898c-0.193-0.117-0.077-0.291-0.116-0.426l-5.401,2.941
			C213.941-17.809,213.787-17.655,214.038-17.655z"/>
		<path style="display:none;fill:none;" d="M-208.75,119.628l0.349,0.658C-208.438,120.132-208.555,119.9-208.75,119.628z"/>
		<path style="display:none;fill:none;" d="M-190.669,92.838c-0.155,0.097-0.348,0.231-0.542,0.387
			C-191.017,93.186-190.824,93.129-190.669,92.838z"/>
		<path style="display:none;fill:none;" d="M-194.579,81.068c0.426,0.834,0.735,1.55,0.987,2.015
			C-193.959,82.229-194.327,81.591-194.579,81.068z"/>
		<path style="display:none;fill:none;" d="M214.87-59.156c-0.117,0.038-0.251,0.038-0.425,0.096l1.76,0.212
			C215.76-58.943,215.527-59.118,214.87-59.156z"/>
		<path style="display:none;fill:none;" d="M-217.557,17.848c0.059,0.038,0.059,0.076,0.059,0.076
			C-217.498,17.886-217.498,17.886-217.557,17.848z"/>
		<path style="display:none;fill:none;" d="M187.111-132.191c-0.136-0.137-0.193-0.253-0.27-0.331
			C186.917-132.385,186.975-132.328,187.111-132.191z"/>
		<path style="display:none;fill:none;" d="M-1.702-116.823c-67.054,0-121.603,54.569-121.603,121.662
			c0,67.017,54.549,121.545,121.603,121.545c0.569,0,1.135-0.014,1.702-0.022V0h119.836
			C117.285-64.857,63.732-116.823-1.702-116.823z"/>
		<linearGradient id="SVGID_13_" gradientUnits="userSpaceOnUse" x1="-11.5729" y1="281.1279" x2="295.7733" y2="-150.2985">
			<stop  offset="0" style="stop-color:#1C1A4E"/>
			<stop  offset="0.3914" style="stop-color:#144172;stop-opacity:0.69"/>
			<stop  offset="0.9951" style="stop-color:#0685AF;stop-opacity:0.212"/>
		</linearGradient>
		<path style="display:none;fill:url(#SVGID_13_);" d="M223.967-48.955l-0.464-0.446C223.658-49.206,223.813-49.033,223.967-48.955z
			"/>
		<linearGradient id="SVGID_14_" gradientUnits="userSpaceOnUse" x1="-85.6142" y1="228.3812" x2="221.732" y2="-203.0452">
			<stop  offset="0" style="stop-color:#1C1A4E"/>
			<stop  offset="0.3914" style="stop-color:#144172;stop-opacity:0.69"/>
			<stop  offset="0.9951" style="stop-color:#0685AF;stop-opacity:0.212"/>
		</linearGradient>
		<path style="display:none;fill:url(#SVGID_14_);" d="M165.083-141.115c0.658-0.542,2.051-1.24,3.716-1.976l9.213-3.058
			c0.544-0.077,1.356-0.542,1.957-0.542c0.193,0,0.29,0.038,0.445,0.116l1.432,1.974l2.634,3.601
			c1.586,2.246,2.788,4.065,3.271,5.11c1.104,1.027,1.646,1.434,1.82,1.434c0.212,0-0.406-0.852-1.104-1.917
			c-1.781-2.458-4.298-5.789-3.368-5.789h0.039l-4.123-5.051c-0.311-0.173-0.562-0.251-0.988-0.251c-1.47,0-3.484,1.316-5.129,1.703
			l-12.331,4.122c0.116,0.832,3.175,0-0.813,1.841c-0.952,0.495-1.84,0.894-2.67,1.217
			C162.621-139.87,167.896-140.63,165.083-141.115z"/>
		<linearGradient id="SVGID_15_" gradientUnits="userSpaceOnUse" x1="-96.7633" y1="220.4387" x2="210.5829" y2="-210.9877">
			<stop  offset="0" style="stop-color:#1C1A4E"/>
			<stop  offset="0.3914" style="stop-color:#144172;stop-opacity:0.69"/>
			<stop  offset="0.9951" style="stop-color:#0685AF;stop-opacity:0.212"/>
		</linearGradient>
		<path style="display:none;fill:url(#SVGID_15_);" d="M158.858-138.498c0.076-0.029,0.148-0.053,0.226-0.083
			C159.008-138.553,158.932-138.526,158.858-138.498z"/>
		<linearGradient id="SVGID_16_" gradientUnits="userSpaceOnUse" x1="-169.7081" y1="168.4731" x2="137.6381" y2="-262.9533">
			<stop  offset="0" style="stop-color:#1C1A4E"/>
			<stop  offset="0.3914" style="stop-color:#144172;stop-opacity:0.69"/>
			<stop  offset="0.9951" style="stop-color:#0685AF;stop-opacity:0.212"/>
		</linearGradient>
		<path style="display:none;fill:url(#SVGID_16_);" d="M85.621-189.896c0.154-0.196,0.251-0.35,0.33-0.543
			C85.774-190.206,85.639-190.013,85.621-189.896z"/>
		<linearGradient id="SVGID_17_" gradientUnits="userSpaceOnUse" x1="-159.1647" y1="175.9842" x2="148.1816" y2="-255.4422">
			<stop  offset="0" style="stop-color:#1C1A4E"/>
			<stop  offset="0.3914" style="stop-color:#144172;stop-opacity:0.69"/>
			<stop  offset="0.9951" style="stop-color:#0685AF;stop-opacity:0.212"/>
		</linearGradient>
		<path style="display:none;fill:url(#SVGID_17_);" d="M-141.966,152.768c-0.272-0.154-0.542-0.367-0.949-0.521
			C-142.47,152.498-142.199,152.653-141.966,152.768z"/>
		<linearGradient id="SVGID_18_" gradientUnits="userSpaceOnUse" x1="-117.2332" y1="205.856" x2="190.113" y2="-225.5704">
			<stop  offset="0" style="stop-color:#1C1A4E"/>
			<stop  offset="0.3914" style="stop-color:#144172;stop-opacity:0.69"/>
			<stop  offset="0.9951" style="stop-color:#0685AF;stop-opacity:0.212"/>
		</linearGradient>
		<path style="display:none;fill:url(#SVGID_18_);" d="M138.699-152.498c0.174-0.503,0.406-1.355,0.716-2.807
			C139.008-154.085,138.796-153.196,138.699-152.498z"/>
		<linearGradient id="SVGID_19_" gradientUnits="userSpaceOnUse" x1="-329.8245" y1="54.4069" x2="-22.4783" y2="-377.0195">
			<stop  offset="0" style="stop-color:#1C1A4E"/>
			<stop  offset="0.3914" style="stop-color:#144172;stop-opacity:0.69"/>
			<stop  offset="0.9951" style="stop-color:#0685AF;stop-opacity:0.212"/>
		</linearGradient>
		<path style="display:none;fill:url(#SVGID_19_);" d="M-192.469-138.444c0.057,0,0.116-0.078,0.116-0.078L-192.469-138.444z"/>
		<linearGradient id="SVGID_20_" gradientUnits="userSpaceOnUse" x1="-280.7528" y1="89.3654" x2="26.5934" y2="-342.061">
			<stop  offset="0" style="stop-color:#1C1A4E"/>
			<stop  offset="0.3914" style="stop-color:#144172;stop-opacity:0.69"/>
			<stop  offset="0.9951" style="stop-color:#0685AF;stop-opacity:0.212"/>
		</linearGradient>
		<path style="display:none;fill:url(#SVGID_20_);" d="M-236.488,26.906c0.135-0.038,0.368-0.075,0.601-0.193
			C-236.043,26.751-236.275,26.831-236.488,26.906z"/>
		<linearGradient id="SVGID_21_" gradientUnits="userSpaceOnUse" x1="-260.9295" y1="103.4875" x2="-116.9448" y2="-98.626">
			<stop  offset="0" style="stop-color:#1C1A4E"/>
			<stop  offset="0.3914" style="stop-color:#144172;stop-opacity:0.69"/>
			<stop  offset="0.9951" style="stop-color:#0685AF;stop-opacity:0.212"/>
		</linearGradient>
		<path style="display:none;fill:url(#SVGID_21_);" d="M-232.229,63.183c-0.004,0-0.005,0.007-0.007,0.01
			c0.003,0.009,0.005,0.018,0.007,0.028V63.183z"/>
		<linearGradient id="SVGID_22_" gradientUnits="userSpaceOnUse" x1="-6.958" y1="284.4156" x2="300.3882" y2="-147.0109">
			<stop  offset="0" style="stop-color:#1C1A4E"/>
			<stop  offset="0.3914" style="stop-color:#144172;stop-opacity:0.69"/>
			<stop  offset="0.9951" style="stop-color:#0685AF;stop-opacity:0.212"/>
		</linearGradient>
		<path style="display:none;fill:url(#SVGID_22_);" d="M205.075-12.776c-0.542,0.349-1.085,0.755-1.471,1.18L205.075-12.776z"/>
		<linearGradient id="SVGID_23_" gradientUnits="userSpaceOnUse" x1="-163.7453" y1="172.721" x2="143.601" y2="-258.7054">
			<stop  offset="0" style="stop-color:#1C1A4E"/>
			<stop  offset="0.3914" style="stop-color:#144172;stop-opacity:0.69"/>
			<stop  offset="0.9951" style="stop-color:#0685AF;stop-opacity:0.212"/>
		</linearGradient>
		<path style="display:none;fill:url(#SVGID_23_);" d="M-1.702,126.384c-67.054,0-121.603-54.528-121.603-121.545
			c0-67.093,54.549-121.662,121.603-121.662c65.435,0,118.987,51.966,121.538,116.823h77.293c-0.116-2.839-0.325-5.627-0.474-8.478
			l9.659-5.285l-1.278,1.026c1.491-1.026,3.368-1.82,4.162-1.82c0.386,0,0.484,0.176,0.309,0.503l4.511-3.058l0.232,0.967
			c3.658-2.226,7.238-4.025,11.537-6.252c1.432-0.367,1.684-1.239,1.277-2.478l-0.523-3.406c-0.329-2.305-0.677-4.896-1.316-7.027
			l-0.407,3.679c-0.928-5.479-3.232-10.53-3.232-15.68c0.311,0.852,0.562,1.122,0.736,1.122c0.271,0,0.367-0.677,0.716-0.832
			c-0.445-1.2-1.084-2.382-1.277-4.026l1.704,1.645c-1.142-1.336-2.208-4.916-3.117-8.536c0.175-2.729-2.555-2.399-4.356-2.691
			c-1.704-0.269-3.194-0.426-3.987-0.426l1.083-0.232c-2.051-0.366-3.02-0.541-3.406-0.541c-1.122,0,2.187,1.161,0.193,1.161
			c-0.291,0-0.62-0.039-1.181-0.076c-4.665-0.776-1.569-1.976-5.788-3.137l-13.782-0.968c-2.323-1.529-3.485-8.169-5.149-12.621
			l-2.246-4.278c-0.464-1.123-1.857-2.304-0.581-3.349l5.188-7.995c1.316-1.762,1.936-2.167,2.188-2.167
			c0.251,0,0.329,0.329,0.483,0.329c0.192,0,0.619-0.428,1.896-2.478c0.039,0.541,0.311,0.656,0.757,0.656
			c0.329,0,0.773-0.076,1.141-0.154c-0.077-0.406,1.336-2.128,2.556-3.795c1.316-1.722,3.098-4.066,2.672-4.066
			c-0.196,0-0.658,0.37-1.628,1.222l3.079-3.774c1.219-1.317,2.535-2.479,1.025-3.951l-4.839-8.438
			c-2.653-4.278-5.537-8.576-8.557-12.484c-0.136-0.137-0.193-0.194-0.27-0.331c0.077,0.078,0.134,0.194,0.27,0.331
			c0.93,1.16,1.704,1.741,2.09,1.741c0.427,0,0.446-0.601-0.114-1.936c-1.491-1.337-4.454-4.549-7.589-8.267l-2.323-2.787
			l-3.987,1.201l-7.356,2.072c0.387,0.986,3.058,0.25,2.458,1.491c-1.103,0.56-2.962,1.587-4.936,2.07
			c-0.987-0.464-1.394-1.374-3.562-1.374c-1.2,0-2.844,0.271-5.381,0.986c0.353-0.568,1.293-1.066,2.449-1.505
			c-2.435,0.921-4.347,1.177-5.777,1.177c-1.724,0-2.711-0.35-2.981-0.35c-0.116-0.174,2.11-0.851,3.097-1.336
			c-3.33,0.639-3.369,0.891-3.95,1.221c-0.213,0.27-0.465,0.387-0.716,0.387c-0.444,0-0.852-0.252-1.258-0.832
			c0.212-0.444,0.406-0.6,0.658-0.6c0.252,0,0.542,0.232,0.775,0.522c1.006-0.213,0.774-0.059,2.438-1.2c-0.154,0-0.29,0-0.425,0
			c-1.491,0-0.891-0.657-1.316-1.026c-0.27,0.116-0.368,0.212-0.62,0.62c-0.154,0.078-0.251,0.212-0.387,0.212h-0.076
			c0,0,0,0-0.039,0c0,0-0.349-0.328-2.034-2.264l1.297,0.349c-1.549-1.335-2.942-2.75-4.549-4.007
			c-0.523,0.484-0.445,2.033,3.232,5.828c-3.406-0.814-4.219-4.145-8.903-7.88c-0.079-0.019-0.233-0.019-0.272-0.019
			c-1.123,0,1.491,1.084,1.491,2.477c-0.059,0.078-0.193,0.117-0.31,0.117c-1.026,0-3.776-2.11-4.569-3.504
			c1.142-3.968,1.646-1.645,2.923-3.175c-0.116,1.181-0.425,2.613-1.083,2.671c0.542,0.445,0.968,0.601,1.316,0.601
			c0.813,0,1.007-1.201,1.724-1.201c0.097,0,0.27,0.039,0.446,0.173c0.773-1.103-0.795,0.079-0.349-2.864
			c-0.194,0.311-0.271,0.369-0.388,0.369c-0.309,0-0.425-0.813-0.812-0.813c-0.115,0-0.194,0.116-0.348,0.31
			c0.116-11.093,4.007-6.002,6.407-15.912c-0.136,0.038-0.251,0.095-0.329,0.095c-0.407,0-0.581-0.579-0.62-1.605l0.736-6.117
			c0.213-2.362,0.213-4.006-0.33-4.006c-0.406,0-0.948,0.831-2.013,2.845c0-0.658,0.524-1.509,0.252-2.148l-2.322-1.413
			c-1.433-0.988-2.787-1.898-3.93-2.826c0.406,0.077,0.658,0.155,0.833,0.155c1.161,0-1.896-2.439-1.045-2.439
			c0.309,0,0.929,0.288,2.206,0.89l-3.871-2.866c1.858,0.581,4.724,2.169,7.336,3.484c-5.246-5.148-9.737-9.234-11.402-11.168
			c-1.258-0.639-1.78-0.833-2.07-0.833c-0.485,0,0.173,0.755-0.252,0.755c-0.233,0-0.929-0.29-2.536-1.181
			c0.232,0.077,0.446,0.077,0.561,0.077c1.123,0-1.586-2.246-3.775-3.621c1.762,1.414,2.092,2.032,1.356,2.032
			c-0.911,0-3.736-1.161-6.911-2.748c-2.458-2.653-4.724-3.466-6.66-3.466c-3.039,0-5.129,1.936-5.439,1.936
			c-0.096,0-0.058-0.058,0.02-0.271c1.722-1.104,3.445-4.354,5.342-4.8c-1.2,0.039-1.665,1.103-2.188,1.103
			c-0.019,0-0.019-0.02-0.059-0.04c-0.716,0.369-1.471,0.619-4.413,3.214l-2.787,3.949c-0.6,1.083-0.891,2.012-1.2,2.864
			c-2.498,2.478-5.053,3.253-5.904,4.065l3.852-4.026c-2.129,1.898-3,2.226-3.581,2.226c-0.329,0-0.523-0.134-0.794-0.134
			c-0.542,0-1.432,0.347-3.678,2.4l-0.871,1.973c-0.6,0.389-1.063,0.621-1.375,0.621c-0.153,0-0.232-0.097-0.193-0.31
			c-0.406,0.562-1.104,1.239-1.897,1.975c-0.503,0.504-0.503,0.543-0.639,0.87l-0.311-0.599c-0.096,0.465-0.309,0.891-0.793,0.987
			c0,0.038-0.078,0.038-0.135,0.038c-0.33,0-1.2-0.463-2.847-1.818c2.73,3,2.44,1.258,3.833,2.458
			c0.619,0.735,0.252,0.967-0.465,0.967c-0.601,0-1.471-0.193-1.781-0.425c1.143-1.394-7.452-3.581-11.149-4.878
			c-0.813-0.93-0.969-1.278-1.065-1.665c-0.445,0.212-0.948,0.465-1.239,0.542c0.987-1.083,0.793-1.355,0.407-2.013
			c-0.407-1.201-1.317-4.452-1.181-6.428c0.406,0.891,0.774,1.336,1.065,1.336c0.426,0,0.696-0.909,0.696-2.651
			c-0.193,0.735-0.425,1.046-0.619,1.046c-1.025,0-2.168-6.119-2.981-6.119c-0.058,0-0.115,0-0.154,0.079
			c-0.078-2.363,0.096-3.136,0.405-3.136c0.601,0,1.684,2.709,2.401,2.709c0.136,0,0.29-0.155,0.368-0.426
			c-0.813-1.78-0.813-3.968-0.891-5.961c-0.173-3.176-0.503-6.931-1.509-8.538c0.155,2.981,0.097,4.046-0.077,4.046
			c-0.349,0-1.317-5.497-1.936-6.155c-4.569-1.355-4.336-1.453-3.484-1.453c0.156,0,0.426,0,0.62,0c0.812,0,1.354-0.134-1.53-1.18
			c-2.071-0.427-4.278-0.697-5.634-0.697c-1.818,0-2.128,0.465,1.278,1.664c-6.039-2.013-9.408-1.025-14.189-3.039
			c-0.387-0.29-0.136-0.407,0.31-0.407c1.375,0,4.937,0.813,5.904,0.813c0.348,0,0.387-0.098-0.154-0.406
			c-2.285-0.543-3.775-0.697-4.879-0.697c-2.749,0-2.749,1.218-6.156,1.218c-0.891,0-2.051-0.076-3.522-0.308
			c4.297,1.315-0.311,2.283-4.471,2.438c-10.357-1.994,4.277-0.06,0.173-1.994l-4.491-0.368c-1.548-0.155-1.412,0.193-1.316-1.355
			c0.542-0.62,2.399-0.503,4.22-0.66c3.755-0.192,8.323-0.192,4.452-1.47l-6.174-0.271c1.297-0.425,3.309-1.142,0.406-2.012
			c-0.058,0.192-0.31,0.271-0.638,0.271c-0.524,0-1.336-0.155-2.189-0.155c-1.471,0-3.173,0.465-3.851,3.388
			c-1.956,3.465-4.356,7.491-4.163,7.491h0.038c0,0.272,0.099,0.368,0.156,0.368c0.388,0,1.761-3.988,2.206-3.988
			c0,0,0.079,0.058,0.079,0.192c-3.271,6.583-1.723,7.474-5.962,13.842c0.407-1.18,0.29-1.549,0-1.549
			c-0.425,0-1.336,0.871-1.645,0.871c-0.175,0-0.194-0.096-0.175-0.368c-2.013,2.826,0.581,1.548-2.246,5.537l-0.289-0.698
			c-2.266,4.163-1.607,3.369-3.621,3.544c-0.968-0.136-2.478-0.175-4.142-0.175c-3.911,0-8.634,0.271-9.292,0.465
			c-0.117,0.155-0.271,0.233-0.426,0.233c-1.975,0-7.667-11.461-12.042-16.222c0-1.123-1.509-4.414-3.561-8.711
			c-0.698-0.891-0.929-2.749-2.014-3.06l-3.813,0.389l-9.156,0.851c0.697-0.059,1.239-0.098,1.665-0.098
			c2.729,0-2.09,1.26-3.601,1.646l-4.626-0.386c-2.846,0.075-5.865,1.064-8.865,1.975l-10.86,3.852c-0.271,0-0.542,0-0.774,0
			c-0.89,0-1.433-0.137-1.937-0.194c-3.406,5.439-0.734,7.916-1.199,10.24c-0.465,1.82-0.871,2.323-1.24,3.523l0.774,0.697
			c0,4.53-0.774,10.337-2.012,10.337c-0.117,0-0.155-0.021-0.232-0.079c0.039,1.297,0.077,2.517,0.271,2.517
			c0.114,0,0.269-0.271,0.463-0.948c0-0.02,0-0.077,0.039-0.115c-0.039,0.038-0.039,0.095-0.039,0.115
			c-0.329,1.181-0.657,2.942-0.948,4.607c-0.368,0.697-0.019,1.84-0.736,2.342c-0.347,0.155-6.987,2.497-10.684,4.569
			c1.761-0.582,2.671-0.853,3.233-0.853c0.715,0,0.832,0.388,1.18,0.735c-0.542,1.82-1.915,0.583-4.704,2.749
			c-0.097-0.096-0.444-0.173-0.774-0.173c-0.154,0-0.29,0-0.425,0c-0.852,0-1.433-0.059,0.755-1.297
			c-1.802,0.427-2.729,0.697-3.465,0.697c-1.393,0-1.897-1.199-7.007-5.111l-8.71-6.697l-5.691-4.492l-3.369-2.69
			c-0.581-0.445-1.162-1.024-1.684-1.316l-1.723,1.026c-3.659,2.361-2.478,1.976-4.143,3.484
			c-12.388,5.653-15.874,9.872-29.849,19.745c0.579-0.31,0.967-0.426,1.238-0.426c0.523,0,0.523,0.426,0.038,1.238
			c0.969,1.761,2.323,4.627,3.33,8.052c2.982,5.925-1.007,2.866-0.077,8.364c1.238,2.359,2.826,7.162,3.311,9.214l-0.214-0.118
			l1.937,4.221l0.541,1.743c-0.445,0.463-0.987,0.734-1.471,1.045l0.116-0.272c-0.735,0.523-4.316,2.846-6.698,5.381
			c-0.077,0.891-1.858,2.943-3.329,4.646c-0.813,1.007-1.684,2.013-1.937,2.981c-0.25-0.193,0.04-0.193-0.464-0.619l0.078,1.063
			l-4.414-1.839c0.193,0,0.31,0,0.464,0c1.22,0,1.512-0.347,2.246-0.386c-1.316-0.561-2.014-0.774-2.438-0.774
			c-0.813,0-0.504,0.813-1.994,0.813c-0.252,0-0.408,0-0.717-0.039c-4.917-0.736-4.375-1.549-6.581-2.593
			c2.129,0.057,3.426,1.257,4.684,1.393c0.077,0,0.193,0,0.233,0c2.322,0-2.983-1.122-2.943-1.704
			c-0.193-0.097-0.31-0.097-0.444-0.097c-0.426,0-0.911,0.213-1.685,0.213c-0.698,0-1.685-0.155-3.04-0.658l-6.522-2.014
			c-2.905-0.947-5.208-1.78-4.647-2.168c-0.754-0.406-1.393-0.6-2.012-0.6c-3.06,0-4.298,4.569-5.711,6.272l3.948-4.491
			c0.31-0.213,0.639-0.331,1.007-0.331c0.794,0,1.645,0.504,2.246,0.93c0.212,0.117,0.406,0.213,0.677,0.426
			c-0.078,0-0.311-0.232-0.677-0.426c-0.368-0.232-0.756-0.29-1.065-0.29c-2.71,0-4.336,4.994-5.266,4.994c-0.038,0-0.077,0-0.077,0
			l1.297-2.187c-1.257,1.896-4.917,6.504-4.259,6.504c0.097,0,0.445-0.214,1.045-0.619l-4.007,3.251
			c-0.425,1.955-3.232,6-5.149,9.408c-0.62-0.04-0.581-1.356-1.162-1.356c-0.503,0-1.472,0.989-3.833,4.53l-3.406,7.936
			c1.161,3.292,2.71,4.491,2.09,4.491c-0.117,0-0.271,0-0.446-0.077l3.621,4.606l2.051,2.168c1.355,1.299,2.477,2.13,3.563,2.866
			c2.246,1.663,4.181,3.038,6.621,6.852c-0.93-0.579-1.394-0.813-1.666-0.813c-0.774,0,0.852,2.206,2.246,4.259c0,0,0.097,0,0.213,0
			c0.251,0,0.621,0.096,1.065,0.58c-0.039-0.987-1.182-0.04-2.633-3.232c0.039-0.174,0.039-0.251,0.135-0.251
			c0.64,0,2.77,2.864,3.273,3.213c0,0.6,0.406,1.199,0.271,1.838l-1.491,2.091c-0.755,1.336-2.963,5.595-4.007,8.771
			c-1.897,4.102-1.259,5.496-3.099,6.115l-8.285,0.447c1.085,1.432-5.672,1.14-8.285,1.954c0.195-0.388-0.116-0.522-0.812-0.522
			c-0.697,0-1.82,0.153-3.02,0.366c-2.169,0.388-6.35,1.085-9.138,1.085c-0.31,0-0.6,0-0.851-0.038l3.697,1.161l-3.949,0.31
			c-0.678,0.696-0.639,2.091-0.987,3.096l-0.813,6.002c-0.484,3.718-0.445,5.73-2.014,8.13c-0.368,1.084-0.619,1.549-0.735,1.549
			c-0.407,0-0.039-3.814,0.077-5.227c-3.252,6.002-1.626,15.661-4.684,23.849c0.037,0.039,0.154,0.039,0.154,0.039
			c0.292,0,0.543-0.232,0.852-0.232c0.038,0,0.077,0.02,0.116,0.039c0.27,0.154,0.465,0.367,0.523,1.063l0.097,1.297l2.207,0.872
			c4.994,3.619,11.672,8.149,10.956,8.149c3.232,1.395,4.336,1.395,7.471,3.794c-0.116,0.039-0.135,0.039-0.271,0.039
			c-0.599,0-1.917-0.658-2.981-1.046c2.419,1.491,5.614,3.193,7.066,3.833c1.103,0.542,3.504,0.542,3.117,2.362
			c-0.426,0.504-0.697,1.276-0.775,2.09l-0.464,5.77l0.155,6.504c0,0.852-0.059,1.935-0.194,2.632
			c0.29,1.084-1.316,1.528-2.71,2.206c-2.128,1.084-3.872,2.014-3.736,2.982c0.059,0.038,0.059,0.038,0.059,0.076
			c0,0,0-0.038-0.059-0.076c0-0.039-0.136-0.039-0.252-0.039c-0.31,0-0.735,0.077-1.026,0.115c-2.11,1.762-3.31,3.853-6.213,5.558
			l0.309-1.608c0-0.251-0.154-0.329-0.426-0.329c-0.697,0-2.265,0.815-3.987,1.78c-1.879,1.064-5.305,3.079-6.737,3.581
			c0.386-0.075,0.542-0.154,0.639-0.154c0.793,0-6.427,2.942-3.117,4.685l1.123,5.267c1.471,7.935,0.754,1.393,2.361,9.33
			c0.31,1.78,0.232,2.438-0.059,2.438c-0.445,0-1.219-1.258-1.277-2.148c0.135,4.162,1.141,7.103,2.38,11.169
			c-0.232-0.853-0.329-1.315-0.232-1.315c0.039,0,0.155,0.193,0.427,0.716c-0.195,0-0.116,0.521-0.079,1.084
			c0.482,1.483,0.964,3.254,1.484,5.217c0.003-0.003,0.003-0.01,0.007-0.01v0.038c-0.003-0.009-0.005-0.018-0.007-0.028
			c-0.021,0.027,0.003,0.145-0.032,0.145c-0.58-2.092-1.141-3.988-1.452-5.228c0.156,1.356,0.736,3.523,1.317,5.885
			c0.057,0.077,0.057,0.233,0.077,0.388c0.465,1.858,0.891,3.716,1.046,4.916l-1.162-0.658c-0.581,2.478,2.342,2.865,5.304,2.865
			c0.774,0,1.452,0,2.148-0.077c0.542,0.077,1.065,0.077,1.587,0.077c2.614,0,3.93-0.154,3.697-0.348
			c5.305,1.044,15.158,2.128,19.822,2.398c0.252-0.039,0.484-0.077,0.697-0.077c1.916,0,1.819,2.323,2.864,3.757
			c0.659,1.431,1.201,2.787,1.743,3.831c0.252,0.523,0.62,1.161,0.987,2.015c-0.252-0.465-0.561-1.181-0.987-2.015
			c-0.329-0.541-0.581-0.889-0.658-0.889c-0.078,0,0.038,0.348,0.465,0.889c1.509,3.332,4.259,7.106,3.639,7.163
			c0.62,1.085,0.658,1.588,0.697,2.208c0.251,0.678-0.078,1.276-1.356,2.399c-0.116,0,0.193,0.387,0.561,0.387c0.02,0,0.02,0,0.02,0
			c0.193-0.155,0.386-0.29,0.542-0.387c-0.155,0.291-0.348,0.348-0.542,0.387c-1.937,1.587-5.343,6.059-7.82,9.659
			c-2.866,3.93-6.001,8.44-11.074,14.345l1.355,2.399c0.194,0.272,0.311,0.504,0.349,0.658l-0.349-0.658
			c-0.503-0.679-1.355-1.664-2.245-2.477c0.098-0.428,0.271-0.774,0.387-1.046l-0.735,1.046
			c6.697,10.414,10.529,15.854,16.027,21.409c-0.851-0.425-1.044,0-2.439-1.51c2.323,2.71,5.924,8.711,8.943,10.995
			c-0.658-1.22-0.774-1.763-0.464-1.763c0.232,0,0.814,0.445,1.434,1.065c0.329,0.465,0.734,0.659,1.239,0.659
			c1.606,0,3.987-1.685,5.458-1.685c0.077,0,0.116,0,0.213,0l0.097,0.098l11.652-3.95c0.349-0.058,0.619-0.096,0.813-0.096
			c1.472,0-3.561,1.258-2.208,1.413c0.272,0.155,0.64,0.192,1.182,0.192c3.368,0,11.673-2.826,12.039-2.826
			c0.059,0,0.059,0.039,0.059,0.039c0.582-0.6,1.124-0.735,1.569-0.735c0.232,0,0.425,0.019,0.502,0.019
			c0.135,0,0.232-0.019,0.232-0.095c2.846,2.398,0.523,1.993,2.381,3.754c3.562,2.517,7.201,4.646,11.015,6.834
			c0.097,0.174,0.212,0.251,0.31,0.329c-0.02,0-0.02,0-0.02,0c-0.425,0,0.621,1.82-0.173,1.82c-0.078,0-0.252-0.04-0.426-0.137
			c3.233,2.226,1.567,5.246,1.451,8.285l-0.193,2.574l-5.884,20.151c-0.06-0.174-0.156-0.252-0.233-0.252
			c-0.426,0-1.2,1.316-1.607,1.316c-0.174,0-0.212-0.252-0.212-0.948l-0.542,2.458l2.535,1.858l5.905,4.511l10.936,8.071
			c-0.793-0.929-0.87-1.276-0.503-1.276c1.278,0,8.052,4.413,9.699,4.413c0.212,0,0.289-0.039,0.348-0.078
			c0.774,0.445,1.471,0.948,2.246,1.375l2.089-1.645c0.35-0.175,0.698-0.29,0.872-0.29h0.059c0.31,0.077,0.387,0.366,0.735,0.366
			c0.213,0,0.581-0.154,1.259-0.541c7.104-6.484,14.731-12.078,20.384-16.86c0,0,0.096,0.213-0.156,0.639
			c0.116-0.039,0.252-0.039,0.31-0.039c2.769,0,7.104,2.789,11.809,4.298l7.006,2.362c1.007,0.388,2.285,0.56,3.175,0.967
			l0.619,2.323l0.116,0.523c-0.058,0-0.116,0-0.116,0c-0.077,0-0.115,0-0.193,0c-0.154,0-0.386-0.137-0.697-1.161
			c0.136,4.161,0.776,4.161,1.317,4.799l0.581,4.995l-0.659-1.296c1.393,5.807,0.659,11.459,2.477,18.021l0.039,0.368
			c-0.039,0.076-0.077,0.076-0.116,0.076c-0.31,0-0.602-1.276-0.93-2.167l0.756,5.129c0.212,1.648,2.979,1.045,4.315,1.762
			c2.013,0.465,3.697,0.563,5.499,0.813c1.199,0.194,2.342,0.562,3.561,0.814c-0.077,0.271-0.446,0.484-1.472,0.484
			c-0.348,0-0.697-0.059-1.16-0.098c2.555,0.851,4.18,0.969,5.612,0.969c0.735,0,1.354,0,2.11,0c1.257,0,2.652,0.115,4.626,0.657
			c1.235,0.261,3.145,0.982,3.627,1.277c0.002,0,0.014,0,0.014,0s-0.011,0-0.014,0c0.092,0.057,0.138,0.099,0.11,0.118
			c0.368-0.039,0.832-0.039,1.316-0.039c1.567,0,3.677,0.153,5.749,0.444c0.097,0,0.155-0.155,0.271-0.155
			c0.349,0.038,0.659,0.155,0.969,0.213l1.123-2.091c0.116-0.232,0.31-0.425,0.386-0.677l1.936-3.447
			c0.775-0.773,1.897-2.187,3.602-4.489l5.651-10.28c1.936-2.399,2.341-6.697,5.265-6.697c0.445,0,0.969,0.079,1.548,0.291
			c2.344,0.135,5.324,0.329,8.208,0.329c1.163,0,2.323-0.039,3.408-0.116L0,206.342v-79.979
			C-0.567,126.37-1.133,126.384-1.702,126.384z M214.87-59.156c0.657,0.038,0.89,0.213,1.335,0.308l-1.76-0.212
			C214.619-59.118,214.753-59.118,214.87-59.156z M219.245-20.867c0.039,0.135-0.077,0.309,0.116,0.426
			c1.182-0.93,1.859-1.394,2.594-1.898l2.052-1.123c-0.658,1.356-8.015,5.653-9.872,5.808c-0.039,0-0.096,0-0.096,0
			c-0.251,0-0.097-0.154-0.195-0.271L219.245-20.867z M-228.881,69.455c0.309,0,0.581,0.038,0.853,0.097
			c0.309,0.02,0.406,0.059,0.696,0.117C-227.835,69.668-228.339,69.571-228.881,69.455z"/>
		<path style="display:none;fill:none;" d="M197.128,0c0.05,1.227,0.087,2.461,0.087,3.717c0,4.104-0.349,8.032-0.561,12.078
			l28.591,15.641c-0.213,1.82-0.581,3.542-0.813,5.305c-0.213,2.168-0.62,4.414-1.084,6.794c-1.316,7.568-2.904,15.08-4.956,22.357
			l-12.989,1.414c-3.91,0.503-7.898,0.969-11.633,1.683c-0.194,0.058-0.426,0.116-0.62,0.116c-0.503,0-0.658-0.174-0.736-0.387
			l-6.35,0.696c-0.813,2.44-2.013,4.647-2.942,7.046l-0.213,0.678c-0.91,3.349-2.458,6.833-3.892,10.278
			c-0.367,1.685-2.4,3.581-1.239,5.034l3.64,4.51l7.666,9.776l7.316,9.64l0.697,0.891c-5.729,10.22-12.272,19.938-19.532,29.133
			l-31.244-9.137c-4.8,5.478-10.026,10.512-15.388,15.35c-0.561,0.697-1.162,1.374-1.704,2.092l9.118,31.01
			c-1.684,1.278-3.407,2.4-5.053,3.678c-4.105,3.291-8.44,6.581-12.969,9.563c-3.098,3.716-6.118,5.034-9.137,5.072
			c-0.678,0.348-1.316,0.832-2.014,1.219l-2.884-2.284c-5.865-2.593-11.48-8.825-16.666-12.136c0.154,0.057,0.386,0.115,0.581,0.115
			c0.348,0,0.58-0.115,0.812-0.271l-1.393-1.103c-1.664-0.871-4.182-3.098-6.892-3.098c-1.356,0-2.748,0.523-4.181,1.994
			c-2.71,0.193-10.841,5.401-15.815,7.259c-0.019-0.077-0.019-0.097-0.058-0.213c0.387,4.568-1.587,6.68-0.619,11.44l-1.433,3.387
			c1.588,2.749-1.743,7.55-1.355,12.932l0.349-0.058c1.082,6.445-4.143,4.549-7.783,6.311l-0.541-0.175
			c-9.37,2.749-14.79,2.672-14.365,3.969c-3.328-0.427,8.112-2.071,3.795-2.69c-0.852,0.076-1.8,0.213-2.71,0.367
			c-2.981,0.716-5.963,1.414-9.078,1.896c-1.763,0.329-3.736,0.833-5.402,0.833c-0.156,0-0.349,0-0.561,0l-3.039-5.362
			L8.635,208.229l-1.315-2.265l-2.711,0.153L0,206.342V266h261V0H197.128z"/>
		<path style="display:none;fill:none;" d="M62.681,195.51c0-0.155,0-0.25-0.039-0.426C62.527,195.123,62.643,195.317,62.681,195.51
			z"/>
		<path style="display:none;fill:none;" d="M0,126.363c66.273-0.915,119.94-55.075,119.94-121.523c0-1.621-0.042-3.233-0.105-4.839
			H0V126.363z"/>
		<linearGradient id="SVGID_24_" gradientUnits="userSpaceOnUse" x1="-13.2896" y1="279.9049" x2="294.0566" y2="-151.5215">
			<stop  offset="0" style="stop-color:#1C1A4E"/>
			<stop  offset="0.3914" style="stop-color:#144172;stop-opacity:0.69"/>
			<stop  offset="0.9951" style="stop-color:#0685AF;stop-opacity:0.212"/>
		</linearGradient>
		<path style="fill:url(#SVGID_24_);" d="M7.32,205.964l1.315,2.265L19.94,228.36l3.039,5.362c0.212,0,0.405,0,0.561,0
			c1.666,0,3.639-0.504,5.402-0.833c3.115-0.482,6.096-1.181,9.078-1.896c0.91-0.154,1.858-0.291,2.71-0.367
			c4.317,0.619-7.123,2.264-3.795,2.69c-0.425-1.297,4.995-1.22,14.365-3.969l0.541,0.175c3.64-1.762,8.866,0.135,7.783-6.311
			l-0.349,0.058c-0.388-5.382,2.943-10.183,1.355-12.932l1.433-3.387c-0.969-4.761,1.006-6.872,0.619-11.44
			c-0.039-0.193-0.154-0.388-0.039-0.426c0.039,0.176,0.039,0.271,0.039,0.426c0.039,0.116,0.039,0.136,0.058,0.213
			c4.974-1.857,13.105-7.065,15.815-7.259c1.432-1.471,2.825-1.994,4.181-1.994c2.71,0,5.227,2.227,6.892,3.098l1.393,1.103
			c-0.232,0.156-0.464,0.271-0.812,0.271c-0.194,0-0.427-0.059-0.581-0.115c5.186,3.311,10.801,9.543,16.666,12.136l2.884,2.284
			c0.698-0.387,1.336-0.871,2.014-1.219c3.019-0.038,6.039-1.356,9.137-5.072c4.529-2.982,8.864-6.271,12.969-9.563
			c1.645-1.277,3.369-2.399,5.053-3.678l-9.118-31.01c0.542-0.718,1.143-1.395,1.704-2.092c5.362-4.838,10.588-9.872,15.388-15.35
			l31.244,9.137c7.26-9.195,13.802-18.913,19.532-29.133l-0.697-0.891l-7.316-9.64l-7.666-9.776l-3.64-4.51
			c-1.161-1.453,0.872-3.349,1.239-5.034c1.434-3.445,2.982-6.93,3.892-10.278l0.213-0.678c0.929-2.399,2.129-4.605,2.942-7.046
			l6.35-0.696c0.078,0.213,0.233,0.387,0.736,0.387c0.193,0,0.425-0.059,0.62-0.116c3.735-0.715,7.724-1.181,11.633-1.683
			l12.989-1.414c2.051-7.277,3.639-14.789,4.956-22.357c0.464-2.38,0.871-4.626,1.084-6.794c0.232-1.763,0.6-3.484,0.813-5.305
			l-28.591-15.641c0.212-4.046,0.561-7.975,0.561-12.078c0-1.256-0.037-2.49-0.087-3.717h-77.293
			c0.063,1.606,0.105,3.218,0.105,4.839c0,66.448-53.667,120.609-119.94,121.523v79.979l4.609-0.224L7.32,205.964z"/>
	</g>
</g>
<g id="Layer_5" style="opacity:0.5;">
	<g>
		<polygon style="fill:none;" points="475.999,665.331 476,665.331 452.01,631.796 		"/>
		<polygon style="fill:none;" points="272.002,787.001 194.668,631.998 341.949,671.33 341.949,671.329 194.668,631.997 
			269.896,543.332 269.896,543.332 345.124,459.998 457.333,421.5 414,578.665 414.001,578.665 341.949,671.329 341.95,671.329 
			414.003,578.666 414.003,578.665 518,517.998 518,517.997 414.003,578.664 457.334,421.5 595,394.678 595,0 250.544,0 
			231.333,85.332 87.66,77.604 87.66,77.605 231.333,85.333 152.496,185.999 152.496,186 152.497,186 152.497,186 152.497,186.001 
			152.496,186.001 87.658,270.601 31.943,202.666 31.943,202.666 87.657,270.601 0,270.601 0,842 204.536,842 134.669,767.788 
			134.667,767.788 134.667,767.787 134.667,767.786 134.667,767.786 194.667,631.997 271.999,786.999 272,786.999 271.999,787 
			272,787.001 271.999,787.001 235.536,842 235.537,842 272,787.001 		"/>
		<polygon style="fill:none;" points="31.943,202.666 31.942,202.665 31.943,202.666 		"/>
		<polygon style="fill:none;" points="87.659,77.606 87.658,77.605 87.659,77.605 87.66,77.604 87.658,77.604 132.462,0 132.462,0 
			87.657,77.604 87.657,77.604 31.942,202.665 31.943,202.665 		"/>
		
			<rect x="-0.516" y="198.571" transform="matrix(0.9687 0.2483 -0.2483 0.9687 49.8085 2.2535)" style="fill:none;" width="32.975" height="0.001"/>
		<polygon style="fill:none;" points="476,665.331 476,665.331 476,665.332 475.999,665.332 406.32,755.325 406.318,755.326 
			385.447,842 595,842 595,640.516 589.912,649.328 		"/>
		<polygon style="fill:none;" points="42.851,0 0,0 0,77.604 87.656,77.604 		"/>
		
			<rect x="489.158" y="462.742" transform="matrix(-0.5717 0.8205 -0.8205 -0.5717 1254.3162 270.7092)" style="fill:none;" width="134.684" height="0.004"/>
		<rect x="31.942" y="202.665" style="opacity:0;fill:#FFFFFF;" width="0.002" height="0.001"/>
		<polygon style="opacity:0;fill:#FFFFFF;" points="31.943,202.666 31.942,202.667 0,241.617 0,270.601 87.657,270.601 		"/>
		<polygon style="opacity:0.2;fill:#FFFFFF;" points="31.942,202.665 87.657,77.604 87.657,77.604 87.657,77.604 87.656,77.604 
			0,77.604 0,130.961 		"/>
		<polygon style="opacity:0.1;fill:#FFFFFF;" points="31.943,202.665 31.942,202.665 31.943,202.666 		"/>
		<polygon style="opacity:0.1;fill:#FFFFFF;" points="152.497,186 152.496,186 152.497,186 		"/>
		<polygon style="opacity:0.1;fill:#FFFFFF;" points="87.658,270.601 152.496,186.001 31.943,202.666 		"/>
		<polygon style="opacity:0;fill:#FFFFFF;" points="0,130.961 0,194.477 31.942,202.665 		"/>
		<polygon style="opacity:0.2;fill:#FFFFFF;" points="0,130.961 31.942,202.665 0,130.961 		"/>
		<polygon style="opacity:0;fill:#FFFFFF;" points="0,130.961 31.942,202.665 0,130.961 		"/>
		<rect x="31.943" y="202.666" style="opacity:0.3;fill:#FFFFFF;" width="0.001" height="0"/>
		<polygon style="opacity:0.3;fill:#FFFFFF;" points="152.496,186 152.496,185.999 152.495,186 		"/>
		<rect x="87.659" y="77.604" style="opacity:0.3;fill:#FFFFFF;" width="0.001" height="0.001"/>
		<polygon style="opacity:0.3;fill:#FFFFFF;" points="152.495,186 87.659,77.606 31.943,202.665 		"/>
		<polygon style="opacity:0.3;fill:#FFFFFF;" points="152.497,186.001 152.497,186 152.496,186.001 		"/>
		<polygon style="opacity:0;fill:#FFFFFF;" points="31.942,202.667 31.943,202.666 31.943,202.666 		"/>
		<polygon style="opacity:0.3;fill:#FFFFFF;" points="31.942,202.667 31.943,202.666 31.943,202.666 		"/>
		<polygon style="opacity:0.1;fill:#FFFFFF;" points="152.495,186 152.495,186 31.943,202.665 31.943,202.666 31.943,202.666 
			152.496,186.001 152.497,186 152.496,186 152.495,186 		"/>
		<polygon style="opacity:0.3;fill:#FFFFFF;" points="152.495,186 152.495,186 31.943,202.665 31.943,202.666 31.943,202.666 
			152.496,186.001 152.497,186 152.496,186 152.495,186 		"/>
		<polygon style="opacity:0.1;fill:#FFFFFF;" points="31.941,202.666 0,194.478 0,241.616 		"/>
		<rect x="15.971" y="196.955" style="opacity:0;fill:#FFFFFF;" width="0.001" height="50.373"/>
		<rect x="15.971" y="196.955" style="opacity:0.1;fill:#FFFFFF;" width="0.001" height="50.373"/>
		<polygon style="fill:#FFFFFF;" points="231.333,85.332 250.544,0 159.317,0 		"/>
		<polygon style="opacity:0.7;fill:#FFFFFF;" points="132.462,0 87.658,77.604 87.66,77.604 87.66,77.604 87.66,77.604 
			231.333,85.332 159.316,0 		"/>
		<polygon style="opacity:0.3;fill:#FFFFFF;" points="87.66,77.604 87.66,77.604 87.66,77.604 		"/>
		<polygon style="opacity:0.7;fill:#FFFFFF;" points="87.66,77.604 87.66,77.604 87.66,77.604 		"/>
		<polygon style="fill:#FFFFFF;" points="159.316,0 231.333,85.332 159.317,0 		"/>
		<polygon style="opacity:0.7;fill:#FFFFFF;" points="159.316,0 231.333,85.332 159.317,0 		"/>
		<polygon style="opacity:0.5;fill:#FFFFFF;" points="87.659,77.606 87.659,77.605 87.658,77.605 		"/>
		<polygon style="opacity:0.5;fill:#FFFFFF;" points="231.333,85.333 87.66,77.605 152.496,185.999 		"/>
		<polygon style="opacity:0.3;fill:#FFFFFF;" points="87.659,77.606 152.495,186 152.495,186 152.496,185.999 87.66,77.605 
			87.659,77.605 		"/>
		<polygon style="opacity:0.5;fill:#FFFFFF;" points="87.659,77.606 152.495,186 152.495,186 152.496,185.999 87.66,77.605 
			87.659,77.605 		"/>
		<polygon style="opacity:0.1;fill:#FFFFFF;" points="152.495,186 152.495,186 152.495,186 		"/>
		<polygon style="opacity:0.3;fill:#FFFFFF;" points="152.495,186 152.495,186 152.495,186 		"/>
		<polygon style="opacity:0.5;fill:#FFFFFF;" points="152.495,186 152.495,186 152.495,186 		"/>
		<polygon style="opacity:0.8;fill:#FFFFFF;" points="87.657,77.604 132.462,0 42.851,0 87.656,77.604 		"/>
		<polygon style="opacity:0.2;fill:#FFFFFF;" points="87.657,77.604 87.657,77.604 87.656,77.604 		"/>
		<polygon style="opacity:0.8;fill:#FFFFFF;" points="87.657,77.604 87.657,77.604 87.656,77.604 		"/>
		<polygon style="opacity:0.8;fill:#FFFFFF;" points="476,665.331 589.912,649.328 518.001,517.998 518,517.998 		"/>
		<rect x="518" y="517.997" style="opacity:0.8;fill:#FFFFFF;" width="0.001" height="0.001"/>
		<polygon style="opacity:0.9;fill:#FFFFFF;" points="518,517.997 595,407.49 595,394.678 457.334,421.5 		"/>
		<polygon style="opacity:0.9;fill:#FFFFFF;" points="518.001,517.998 589.912,649.328 595,640.516 595,532.653 		"/>
		<polygon style="opacity:0.9;fill:#FFFFFF;" points="518.001,517.997 518,517.997 518,517.998 		"/>
		<polygon style="opacity:0.8;fill:#FFFFFF;" points="414.003,578.664 518,517.997 457.334,421.5 		"/>
		<polygon style="fill:#FFFFFF;" points="595,532.652 595,407.494 518.001,517.997 		"/>
		<polygon style="fill:#FFFFFF;" points="518,517.998 518.001,517.998 518,517.998 		"/>
		<polygon style="fill:#FFFFFF;" points="518.001,517.997 518,517.998 518.001,517.998 595,532.653 595,532.652 		"/>
		<polygon style="opacity:0.6;fill:#FFFFFF;" points="414.003,578.665 414.003,578.666 414.004,578.665 452.01,631.796 476,665.331 
			518,517.998 		"/>
		<polygon style="opacity:0.8;fill:#FFFFFF;" points="518,517.998 476,665.331 518,517.998 		"/>
		<polygon style="opacity:0.6;fill:#FFFFFF;" points="518,517.998 476,665.331 518,517.998 		"/>
		<polygon style="opacity:0.1;fill:#FFFFFF;" points="341.949,671.33 272.003,787 406.318,755.325 406.318,755.326 406.32,755.325 
			341.95,671.33 		"/>
		<rect x="341.949" y="671.329" style="opacity:0.1;fill:#FFFFFF;" width="0.001" height="0.001"/>
		<polygon style="opacity:0.5;fill:#FFFFFF;" points="414,578.665 414,578.665 269.897,543.332 341.949,671.329 414.001,578.665 		
			"/>
		<polygon style="opacity:0.2;fill:#FFFFFF;" points="406.32,755.325 475.999,665.332 341.95,671.33 		"/>
		<polygon style="opacity:0.2;fill:#FFFFFF;" points="341.95,671.329 341.949,671.329 341.95,671.33 		"/>
		<polygon style="opacity:0.2;fill:#FFFFFF;" points="476,665.331 476,665.331 475.999,665.331 		"/>
		<polygon style="opacity:0.4;fill:#FFFFFF;" points="269.896,543.332 194.668,631.997 341.949,671.329 269.897,543.332 		"/>
		<polygon style="opacity:0.3;fill:#FFFFFF;" points="476,665.332 476,665.331 475.999,665.332 		"/>
		<polygon style="opacity:0.3;fill:#FFFFFF;" points="452.01,631.796 414.003,578.666 341.95,671.329 475.999,665.331 		"/>
		<polygon style="opacity:0.6;fill:#FFFFFF;" points="414.004,578.665 414.003,578.666 452.01,631.796 		"/>
		<polygon style="opacity:0.3;fill:#FFFFFF;" points="414.004,578.665 414.003,578.666 452.01,631.796 		"/>
		<polygon style="opacity:0.1;fill:#FFFFFF;" points="341.95,671.33 341.95,671.33 341.949,671.33 		"/>
		<polygon style="opacity:0.3;fill:#FFFFFF;" points="341.95,671.33 341.95,671.33 341.949,671.33 		"/>
		<polygon style="opacity:0.2;fill:#FFFFFF;" points="341.95,671.329 341.95,671.33 341.95,671.33 475.999,665.332 476,665.331 
			475.999,665.331 		"/>
		<polygon style="opacity:0.3;fill:#FFFFFF;" points="341.95,671.329 341.95,671.33 341.95,671.33 475.999,665.332 476,665.331 
			475.999,665.331 		"/>
		<polygon style="opacity:0.3;fill:#FFFFFF;" points="341.949,671.33 194.668,631.998 272.002,787.001 272.003,787 		"/>
		
			<rect x="239.388" y="729.165" transform="matrix(-0.5175 0.8557 -0.8557 -0.5175 1089.7762 843.7917)" style="opacity:0.1;fill:#FFFFFF;" width="135.174" height="0.001"/>
		
			<rect x="239.388" y="729.165" transform="matrix(-0.5175 0.8557 -0.8557 -0.5175 1089.7762 843.7917)" style="opacity:0.3;fill:#FFFFFF;" width="135.174" height="0.001"/>
		<polygon style="opacity:0.6;fill:#FFFFFF;" points="414,578.665 345.124,459.998 269.896,543.332 269.896,543.332 
			269.896,543.332 		"/>
		<rect x="341.948" y="486.813" style="opacity:0.5;fill:#FFFFFF;" width="0" height="148.372"/>
		<rect x="341.948" y="486.813" style="opacity:0.6;fill:#FFFFFF;" width="0" height="148.372"/>
		<polygon style="opacity:0.4;fill:#FFFFFF;" points="269.896,543.332 269.896,543.332 269.897,543.332 		"/>
		<polygon style="opacity:0.6;fill:#FFFFFF;" points="269.896,543.332 269.896,543.332 269.897,543.332 		"/>
		<polygon style="opacity:0.7;fill:#FFFFFF;" points="414,578.665 457.333,421.5 345.124,459.998 414,578.665 		"/>
		<polygon style="opacity:0.5;fill:#FFFFFF;" points="414,578.665 414,578.665 414,578.665 		"/>
		<polygon style="opacity:0.7;fill:#FFFFFF;" points="414,578.665 414,578.665 414,578.665 		"/>
		<polygon style="opacity:0;fill:#FFFFFF;" points="272.002,787.001 272.002,787.001 272,787.001 356.558,842 385.447,842 
			406.318,755.326 		"/>
		<rect x="339.16" y="702.163" style="opacity:0.1;fill:#FFFFFF;" width="0.001" height="138"/>
		<rect x="339.16" y="702.163" style="opacity:0;fill:#FFFFFF;" width="0.001" height="138"/>
		<polygon style="opacity:0.3;fill:#FFFFFF;" points="272.002,787.001 272.002,787.001 272.003,787 		"/>
		<polygon style="opacity:0;fill:#FFFFFF;" points="272.002,787.001 272.002,787.001 272.003,787 		"/>
		<polygon style="opacity:0.1;fill:#FFFFFF;" points="272.003,787 272.002,787.001 272.003,787 		"/>
		<polygon style="opacity:0.3;fill:#FFFFFF;" points="272.003,787 272.002,787.001 272.003,787 		"/>
		<polygon style="opacity:0;fill:#FFFFFF;" points="272.003,787 272.002,787.001 272.003,787 		"/>
		<polygon style="opacity:0.1;fill:#FFFFFF;" points="272,787.001 235.537,842 356.558,842 		"/>
		<polygon style="opacity:0;fill:#FFFFFF;" points="134.667,767.786 134.667,767.787 134.667,767.786 		"/>
		<polygon style="opacity:0;fill:#FFFFFF;" points="134.669,767.788 204.536,842 235.536,842 271.999,787.001 		"/>
		<polygon style="opacity:0;fill:#FFFFFF;" points="272,786.999 271.999,786.999 271.999,787 		"/>
		<polygon style="opacity:0.2;fill:#FFFFFF;" points="134.667,767.788 134.669,767.788 134.667,767.787 		"/>
		<polygon style="opacity:0.2;fill:#FFFFFF;" points="272,787.001 271.999,787 271.999,787.001 		"/>
		<polygon style="opacity:0.2;fill:#FFFFFF;" points="194.667,631.997 134.667,767.786 271.999,786.999 		"/>
		<polygon style="opacity:0;fill:#FFFFFF;" points="271.999,787 271.999,786.999 134.667,767.786 134.667,767.787 134.669,767.788 
			271.999,787.001 		"/>
		<polygon style="opacity:0.2;fill:#FFFFFF;" points="271.999,787 271.999,786.999 134.667,767.786 134.667,767.787 
			134.669,767.788 271.999,787.001 		"/>
	</g>
</g>
<g id="text">
	<path style="fill:#152259;" d="M56.604,303.918v-25.624h8.302c3.146,0,5.197,0.128,6.152,0.384
		c1.468,0.385,2.698,1.221,3.688,2.508s1.486,2.951,1.486,4.99c0,1.573-0.286,2.896-0.856,3.968
		c-0.571,1.072-1.296,1.914-2.176,2.525s-1.774,1.017-2.683,1.215c-1.235,0.245-3.023,0.367-5.366,0.367h-3.374v9.666H56.604z
		 M61.778,282.629v7.271h2.832c2.039,0,3.402-0.134,4.09-0.402c0.687-0.268,1.226-0.688,1.617-1.258
		c0.39-0.571,0.585-1.235,0.585-1.993c0-0.932-0.274-1.701-0.821-2.307c-0.548-0.606-1.241-0.984-2.08-1.136
		c-0.618-0.116-1.859-0.175-3.723-0.175H61.778z"/>
	<path style="fill:#152259;" d="M80.498,303.918v-25.624h10.89c2.738,0,4.728,0.23,5.969,0.69c1.241,0.46,2.234,1.279,2.98,2.456
		c0.746,1.177,1.119,2.523,1.119,4.038c0,1.923-0.565,3.51-1.695,4.763c-1.13,1.253-2.82,2.042-5.069,2.369
		c1.119,0.653,2.042,1.369,2.771,2.15c0.728,0.781,1.71,2.167,2.945,4.16l3.129,4.999h-6.188l-3.74-5.576
		c-1.329-1.993-2.237-3.248-2.727-3.767c-0.489-0.519-1.008-0.874-1.555-1.066c-0.548-0.192-1.416-0.288-2.604-0.288h-1.049v10.697
		H80.498z M85.671,289.131H89.5c2.482,0,4.031-0.104,4.649-0.314s1.101-0.571,1.451-1.083s0.524-1.154,0.524-1.923
		c0-0.862-0.23-1.558-0.69-2.089c-0.46-0.53-1.11-0.865-1.949-1.005c-0.419-0.058-1.678-0.087-3.775-0.087h-4.038V289.131z"/>
	<path style="fill:#152259;" d="M129.438,303.918h-5.628l-2.237-5.82H111.33l-2.115,5.82h-5.488l9.98-25.624h5.471L129.438,303.918z
		 M119.912,293.78l-3.531-9.508l-3.46,9.508H119.912z"/>
	<path style="fill:#152259;" d="M148.577,294.497l5.016,1.59c-0.769,2.797-2.048,4.874-3.836,6.231
		c-1.789,1.357-4.058,2.036-6.808,2.036c-3.402,0-6.199-1.163-8.39-3.487c-2.191-2.325-3.286-5.503-3.286-9.535
		c0-4.265,1.101-7.577,3.304-9.937c2.202-2.36,5.098-3.54,8.687-3.54c3.135,0,5.681,0.926,7.638,2.779
		c1.165,1.096,2.039,2.668,2.622,4.719l-5.121,1.224c-0.303-1.328-0.936-2.377-1.896-3.146c-0.961-0.769-2.13-1.154-3.504-1.154
		c-1.9,0-3.441,0.682-4.624,2.045s-1.774,3.572-1.774,6.625c0,3.24,0.583,5.547,1.748,6.921c1.165,1.375,2.68,2.063,4.544,2.063
		c1.375,0,2.558-0.437,3.548-1.311S148.146,296.373,148.577,294.497z"/>
	<path style="fill:#152259;" d="M163.801,303.918v-21.289h-7.603v-4.334h20.363v4.334h-7.586v21.289H163.801z"/>
	<path style="fill:#152259;" d="M179.741,303.918v-25.624h5.174v25.624H179.741z"/>
	<path style="fill:#152259;" d="M206.239,294.497l5.016,1.59c-0.769,2.797-2.048,4.874-3.836,6.231
		c-1.789,1.357-4.058,2.036-6.808,2.036c-3.402,0-6.199-1.163-8.39-3.487c-2.191-2.325-3.286-5.503-3.286-9.535
		c0-4.265,1.101-7.577,3.304-9.937c2.202-2.36,5.098-3.54,8.687-3.54c3.135,0,5.681,0.926,7.638,2.779
		c1.165,1.096,2.039,2.668,2.622,4.719l-5.121,1.224c-0.303-1.328-0.936-2.377-1.896-3.146c-0.961-0.769-2.13-1.154-3.504-1.154
		c-1.9,0-3.441,0.682-4.624,2.045s-1.774,3.572-1.774,6.625c0,3.24,0.583,5.547,1.748,6.921c1.165,1.375,2.68,2.063,4.544,2.063
		c1.375,0,2.558-0.437,3.548-1.311S205.808,296.373,206.239,294.497z"/>
	<path style="fill:#152259;" d="M238.802,303.918h-5.628l-2.237-5.82h-10.243l-2.115,5.82h-5.488l9.98-25.624h5.471L238.802,303.918
		z M229.276,293.78l-3.531-9.508l-3.46,9.508H229.276z"/>
	<path style="fill:#152259;" d="M241.686,303.918v-25.414h5.174v21.097h12.864v4.317H241.686z"/>
	<path style="fill:#152259;" d="M56.447,346.874V321.25h5.174v25.624H56.447z"/>
	<path style="fill:#152259;" d="M66.532,321.25h9.456c2.132,0,3.758,0.163,4.876,0.489c1.503,0.443,2.791,1.229,3.863,2.359
		c1.072,1.13,1.888,2.515,2.447,4.151c0.56,1.637,0.839,3.656,0.839,6.056c0,2.109-0.262,3.927-0.786,5.454
		c-0.641,1.864-1.556,3.374-2.744,4.527c-0.897,0.874-2.109,1.556-3.636,2.045c-1.142,0.361-2.668,0.542-4.58,0.542h-9.735V321.25z
		 M71.706,325.584v16.972h3.863c1.444,0,2.487-0.081,3.128-0.245c0.839-0.209,1.535-0.565,2.089-1.066
		c0.553-0.501,1.005-1.326,1.354-2.474c0.35-1.147,0.524-2.712,0.524-4.693s-0.175-3.501-0.524-4.562
		c-0.35-1.06-0.839-1.888-1.468-2.482s-1.428-0.996-2.395-1.206c-0.723-0.163-2.139-0.245-4.248-0.245H71.706z"/>
	<path style="fill:#152259;" d="M92.401,346.874V321.25H111.4v4.334H97.574v5.681h12.864v4.317H97.574v6.974h14.315v4.317H92.401z"
		/>
	<path style="fill:#152259;" d="M116.329,346.874V321.25h5.034l10.487,17.111V321.25h4.807v25.624h-5.191l-10.33-16.709v16.709
		H116.329z"/>
	<path style="fill:#152259;" d="M147.895,346.874v-21.289h-7.603v-4.334h20.363v4.334h-7.586v21.289H147.895z"/>
	<path style="fill:#152259;" d="M163.835,346.874V321.25h5.174v25.624H163.835z"/>
	<path style="fill:#152259;" d="M179.706,346.874v-21.289h-7.603v-4.334h20.363v4.334h-7.586v21.289H179.706z"/>
	<path style="fill:#152259;" d="M202.533,346.874v-10.784l-9.386-14.839h6.065l6.03,10.138l5.908-10.138h5.96l-9.421,14.874v10.75
		H202.533z"/>
	<path style="fill:#152259;" d="M228.909,346.874V321.25h7.743l4.649,17.479l4.597-17.479h7.761v25.624h-4.807v-20.17l-5.086,20.17
		h-4.981l-5.069-20.17v20.17H228.909z"/>
	<path style="fill:#152259;" d="M281.904,346.874h-5.628l-2.237-5.82h-10.243l-2.115,5.82h-5.488l9.98-25.624h5.471L281.904,346.874
		z M272.378,336.736l-3.531-9.508l-3.46,9.508H272.378z"/>
	<path style="fill:#152259;" d="M284.701,346.874V321.25h5.034l10.487,17.111V321.25h4.807v25.624h-5.191l-10.33-16.709v16.709
		H284.701z"/>
	<path style="fill:#152259;" d="M333.605,346.874h-5.628l-2.237-5.82h-10.242l-2.115,5.82h-5.488l9.98-25.624h5.471L333.605,346.874
		z M324.08,336.736l-3.531-9.508l-3.461,9.508H324.08z"/>
	<path style="fill:#152259;" d="M348.271,337.453v-4.317h11.151v10.208c-1.083,1.049-2.653,1.973-4.71,2.771
		s-4.14,1.197-6.249,1.197c-2.68,0-5.017-0.562-7.009-1.687s-3.49-2.732-4.492-4.824c-1.002-2.091-1.503-4.367-1.503-6.826
		c0-2.668,0.56-5.04,1.678-7.114c1.119-2.074,2.756-3.665,4.912-4.771c1.643-0.851,3.688-1.276,6.135-1.276
		c3.181,0,5.666,0.667,7.454,2.001c1.789,1.334,2.939,3.179,3.452,5.532l-5.139,0.961c-0.361-1.259-1.04-2.252-2.036-2.98
		c-0.996-0.728-2.24-1.092-3.731-1.092c-2.261,0-4.059,0.717-5.393,2.15s-2.001,3.56-2.001,6.38c0,3.041,0.676,5.322,2.027,6.843
		s3.123,2.281,5.313,2.281c1.084,0,2.17-0.212,3.26-0.638s2.024-0.941,2.806-1.547v-3.251H348.271z"/>
	<path style="fill:#152259;" d="M364.193,346.874V321.25h18.999v4.334h-13.825v5.681h12.864v4.317h-12.864v6.974h14.314v4.317
		H364.193z"/>
	<path style="fill:#152259;" d="M387.999,346.874V321.25h7.743l4.649,17.479l4.597-17.479h7.761v25.624h-4.807v-20.17l-5.086,20.17
		h-4.981l-5.069-20.17v20.17H387.999z"/>
	<path style="fill:#152259;" d="M417.888,346.874V321.25h18.999v4.334h-13.825v5.681h12.864v4.317h-12.864v6.974h14.314v4.317
		H417.888z"/>
	<path style="fill:#152259;" d="M441.816,346.874V321.25h5.033l10.487,17.111V321.25h4.807v25.624h-5.191l-10.329-16.709v16.709
		H441.816z"/>
	<path style="fill:#152259;" d="M473.382,346.874v-21.289h-7.603v-4.334h20.362v4.334h-7.586v21.289H473.382z"/>
	<path style="fill:#152259;" d="M60.24,389.829l-6.117-25.624h5.296l3.863,17.601l4.684-17.601h6.153l4.492,17.898l3.933-17.898
		h5.209l-6.223,25.624h-5.488l-5.104-19.157l-5.086,19.157H60.24z"/>
	<path style="fill:#152259;" d="M90.233,389.829v-25.624h5.174v25.624H90.233z"/>
	<path style="fill:#152259;" d="M106.104,389.829V368.54H98.5v-4.334h20.363v4.334h-7.586v21.289H106.104z"/>
	<path style="fill:#152259;" d="M122.219,389.829v-25.624h5.174v10.085h10.138v-10.085h5.174v25.624h-5.174v-11.204h-10.138v11.204
		H122.219z"/>
	<path style="fill:#152259;" d="M157.928,389.829v-25.624h7.743l4.649,17.479l4.597-17.479h7.761v25.624h-4.807v-20.17l-5.086,20.17
		h-4.981l-5.069-20.17v20.17H157.928z"/>
	<path style="fill:#152259;" d="M187.659,389.829v-25.624h5.174v25.624H187.659z"/>
	<path style="fill:#152259;" d="M197.745,364.206h9.456c2.132,0,3.758,0.163,4.876,0.489c1.503,0.443,2.791,1.229,3.863,2.359
		c1.072,1.13,1.888,2.515,2.447,4.151c0.56,1.637,0.839,3.656,0.839,6.056c0,2.109-0.262,3.927-0.786,5.454
		c-0.641,1.864-1.556,3.374-2.744,4.527c-0.897,0.874-2.109,1.556-3.636,2.045c-1.142,0.361-2.668,0.542-4.58,0.542h-9.735V364.206z
		 M202.918,368.54v16.972h3.863c1.444,0,2.487-0.081,3.128-0.245c0.839-0.209,1.535-0.565,2.089-1.066
		c0.553-0.501,1.005-1.326,1.354-2.474c0.35-1.147,0.524-2.712,0.524-4.693s-0.175-3.501-0.524-4.562
		c-0.35-1.06-0.839-1.888-1.468-2.482s-1.428-0.996-2.395-1.206c-0.723-0.163-2.139-0.245-4.248-0.245H202.918z"/>
	<path style="fill:#152259;" d="M223.613,389.829v-25.624h8.302c3.146,0,5.197,0.128,6.152,0.384
		c1.468,0.385,2.698,1.221,3.688,2.508s1.486,2.951,1.486,4.99c0,1.573-0.286,2.896-0.856,3.968
		c-0.571,1.072-1.296,1.914-2.176,2.525s-1.774,1.017-2.683,1.215c-1.235,0.245-3.023,0.367-5.366,0.367h-3.374v9.666H223.613z
		 M228.786,368.54v7.271h2.832c2.039,0,3.402-0.134,4.09-0.402c0.687-0.268,1.226-0.688,1.617-1.258
		c0.39-0.571,0.585-1.235,0.585-1.993c0-0.932-0.274-1.701-0.821-2.307c-0.548-0.606-1.241-0.984-2.08-1.136
		c-0.618-0.116-1.859-0.175-3.723-0.175H228.786z"/>
	<path style="fill:#152259;" d="M246.44,377.175c0-2.61,0.39-4.801,1.171-6.572c0.583-1.305,1.378-2.476,2.386-3.513
		s2.112-1.806,3.313-2.307c1.596-0.676,3.437-1.014,5.523-1.014c3.775,0,6.796,1.171,9.063,3.513
		c2.266,2.342,3.399,5.599,3.399,9.771c0,4.137-1.125,7.373-3.374,9.709c-2.249,2.336-5.255,3.504-9.019,3.504
		c-3.811,0-6.84-1.163-9.089-3.487C247.564,384.455,246.44,381.253,246.44,377.175z M251.771,377c0,2.901,0.67,5.101,2.01,6.598
		c1.34,1.497,3.042,2.246,5.104,2.246s3.755-0.743,5.078-2.229c1.322-1.485,1.984-3.714,1.984-6.686
		c0-2.936-0.644-5.127-1.932-6.572s-2.998-2.167-5.13-2.167s-3.852,0.731-5.156,2.194C252.423,371.847,251.771,374.052,251.771,377z
		"/>
	<path style="fill:#152259;" d="M275.174,389.829v-25.624h5.174v25.624H275.174z"/>
	<path style="fill:#152259;" d="M285.33,389.829v-25.624h5.034l10.487,17.111v-17.111h4.807v25.624h-5.191l-10.33-16.709v16.709
		H285.33z"/>
	<path style="fill:#152259;" d="M316.896,389.829V368.54h-7.603v-4.334h20.362v4.334h-7.586v21.289H316.896z"/>
	<path style="fill:#152259;" d="M54.983,418.224v-12.388h4.647c0.946,0,1.706,0.126,2.277,0.376c0.571,0.251,1.02,0.637,1.343,1.158
		c0.324,0.521,0.486,1.065,0.486,1.635c0,0.529-0.144,1.028-0.431,1.495c-0.288,0.468-0.721,0.846-1.301,1.133
		c0.749,0.22,1.325,0.595,1.728,1.124c0.402,0.529,0.604,1.154,0.604,1.876c0,0.58-0.123,1.119-0.368,1.618
		c-0.245,0.498-0.548,0.883-0.908,1.153c-0.361,0.271-0.813,0.475-1.356,0.612c-0.543,0.138-1.209,0.207-1.998,0.207H54.983z
		 M56.622,411.042h2.679c0.727,0,1.248-0.048,1.563-0.144c0.417-0.124,0.731-0.329,0.942-0.617c0.211-0.287,0.317-0.647,0.317-1.081
		c0-0.411-0.099-0.773-0.296-1.086s-0.479-0.526-0.845-0.643c-0.366-0.115-0.995-0.173-1.884-0.173h-2.476V411.042z M56.622,416.762
		h3.084c0.529,0,0.901-0.02,1.115-0.059c0.377-0.068,0.693-0.181,0.946-0.339c0.253-0.157,0.462-0.387,0.625-0.688
		c0.163-0.301,0.245-0.649,0.245-1.043c0-0.462-0.119-0.863-0.355-1.204c-0.237-0.341-0.565-0.58-0.984-0.719
		c-0.42-0.138-1.024-0.207-1.813-0.207h-2.865V416.762z"/>
	<path style="fill:#152259;" d="M70.083,418.224v-5.247l-4.774-7.141h1.994l2.442,3.735c0.451,0.698,0.871,1.396,1.259,2.095
		c0.372-0.647,0.822-1.377,1.352-2.188l2.399-3.642h1.91l-4.943,7.141v5.247H70.083z"/>
	<path style="fill:#152259;" d="M82.656,418.224v-12.388h5.493c1.104,0,1.943,0.111,2.518,0.334s1.034,0.615,1.377,1.179
		c0.343,0.563,0.515,1.186,0.515,1.867c0,0.879-0.285,1.62-0.854,2.223s-1.448,0.985-2.636,1.149
		c0.434,0.208,0.763,0.414,0.989,0.616c0.479,0.439,0.932,0.989,1.36,1.648l2.155,3.371h-2.062l-1.639-2.577
		c-0.479-0.744-0.873-1.313-1.183-1.707c-0.31-0.395-0.587-0.67-0.832-0.828c-0.245-0.157-0.495-0.268-0.748-0.329
		c-0.186-0.04-0.49-0.06-0.913-0.06h-1.901v5.501H82.656z M84.295,411.303h3.524c0.749,0,1.335-0.077,1.757-0.232
		c0.423-0.154,0.744-0.402,0.963-0.743s0.33-0.711,0.33-1.111c0-0.586-0.213-1.067-0.638-1.444
		c-0.426-0.378-1.097-0.566-2.016-0.566h-3.921V411.303z"/>
	<path style="fill:#152259;" d="M93.768,418.224l4.757-12.388h1.766l5.07,12.388h-1.867l-1.445-3.752h-5.18l-1.36,3.752H93.768z
		 M97.342,413.137h4.2l-1.293-3.431c-0.394-1.042-0.687-1.898-0.878-2.568c-0.158,0.794-0.38,1.583-0.668,2.365L97.342,413.137z"/>
	<path style="fill:#152259;" d="M106.671,418.224v-12.388h4.268c0.963,0,1.698,0.06,2.205,0.178c0.71,0.163,1.315,0.459,1.817,0.887
		c0.653,0.553,1.142,1.258,1.466,2.117c0.324,0.859,0.486,1.841,0.486,2.944c0,0.941-0.11,1.774-0.33,2.502
		c-0.22,0.727-0.501,1.327-0.845,1.804c-0.344,0.476-0.72,0.851-1.128,1.124c-0.409,0.273-0.901,0.48-1.479,0.621
		c-0.577,0.141-1.241,0.211-1.99,0.211H106.671z M108.311,416.762h2.645c0.817,0,1.458-0.076,1.922-0.229
		c0.465-0.151,0.835-0.365,1.111-0.642c0.389-0.389,0.691-0.911,0.908-1.567s0.325-1.452,0.325-2.388
		c0-1.295-0.212-2.291-0.638-2.986c-0.425-0.696-0.942-1.162-1.551-1.398c-0.439-0.169-1.146-0.254-2.121-0.254h-2.603V416.762z"/>
	<path style="fill:#152259;" d="M118.67,412.191c0-2.057,0.552-3.666,1.656-4.829s2.529-1.745,4.276-1.745
		c1.144,0,2.174,0.273,3.092,0.819c0.918,0.547,1.618,1.309,2.1,2.286c0.481,0.978,0.723,2.086,0.723,3.325
		c0,1.256-0.254,2.38-0.761,3.371c-0.507,0.992-1.225,1.742-2.155,2.252c-0.929,0.51-1.932,0.765-3.008,0.765
		c-1.166,0-2.208-0.281-3.126-0.845c-0.918-0.563-1.614-1.332-2.087-2.307S118.67,413.278,118.67,412.191z M120.36,412.216
		c0,1.493,0.401,2.669,1.204,3.527c0.803,0.859,1.81,1.289,3.021,1.289c1.234,0,2.249-0.434,3.046-1.302
		c0.797-0.867,1.195-2.098,1.195-3.692c0-1.008-0.17-1.889-0.511-2.641s-0.839-1.335-1.496-1.749s-1.393-0.621-2.209-0.621
		c-1.161,0-2.159,0.398-2.996,1.195C120.778,409.021,120.36,410.352,120.36,412.216z"/>
	<path style="fill:#152259;" d="M136.17,418.224l-4.799-12.388h1.774l3.219,8.999c0.259,0.722,0.476,1.397,0.651,2.028
		c0.191-0.676,0.414-1.353,0.667-2.028l3.346-8.999h1.673l-4.85,12.388H136.17z"/>
	<path style="fill:#152259;" d="M141.527,418.224l4.757-12.388h1.766l5.07,12.388h-1.867l-1.445-3.752h-5.18l-1.36,3.752H141.527z
		 M145.101,413.137h4.2l-1.293-3.431c-0.394-1.042-0.687-1.898-0.878-2.568c-0.158,0.794-0.38,1.583-0.668,2.365L145.101,413.137z"
		/>
	<path style="fill:#152259;" d="M154.414,418.224v-12.388h1.681l6.507,9.726v-9.726h1.571v12.388h-1.681l-6.507-9.734v9.734H154.414
		z"/>
	<path style="fill:#152259;" d="M171.178,414.245l1.546-0.136c0.073,0.62,0.244,1.128,0.511,1.525s0.683,0.718,1.247,0.963
		c0.563,0.245,1.197,0.368,1.901,0.368c0.625,0,1.177-0.093,1.656-0.279c0.479-0.186,0.835-0.44,1.069-0.765
		s0.351-0.677,0.351-1.061c0-0.389-0.112-0.728-0.338-1.018c-0.225-0.29-0.597-0.534-1.115-0.731
		c-0.333-0.13-1.068-0.331-2.206-0.604c-1.138-0.272-1.935-0.53-2.391-0.772c-0.592-0.31-1.032-0.694-1.323-1.153
		c-0.29-0.459-0.435-0.974-0.435-1.543c0-0.625,0.178-1.209,0.532-1.753c0.355-0.544,0.874-0.956,1.555-1.238
		c0.681-0.281,1.439-0.422,2.273-0.422c0.918,0,1.728,0.147,2.429,0.443c0.702,0.296,1.241,0.73,1.618,1.306
		c0.377,0.574,0.58,1.226,0.608,1.952l-1.572,0.118c-0.084-0.783-0.37-1.375-0.857-1.774c-0.487-0.4-1.207-0.601-2.159-0.601
		c-0.991,0-1.714,0.182-2.167,0.545c-0.453,0.364-0.68,0.802-0.68,1.314c0,0.445,0.161,0.812,0.482,1.099
		c0.315,0.287,1.139,0.582,2.472,0.883c1.332,0.302,2.246,0.564,2.742,0.79c0.721,0.333,1.253,0.754,1.597,1.264
		s0.516,1.097,0.516,1.762c0,0.659-0.189,1.28-0.566,1.863s-0.919,1.036-1.626,1.36c-0.707,0.323-1.503,0.485-2.387,0.485
		c-1.121,0-2.061-0.163-2.818-0.49c-0.758-0.326-1.352-0.817-1.783-1.474C171.427,415.815,171.2,415.073,171.178,414.245z"/>
	<path style="fill:#152259;" d="M183.312,418.224v-12.388h8.957v1.462h-7.317v3.794h6.853v1.453h-6.853v4.217h7.605v1.462H183.312z"
		/>
	<path style="fill:#152259;" d="M194.77,418.224v-12.388h2.468l2.932,8.771c0.27,0.816,0.467,1.428,0.591,1.833
		c0.141-0.45,0.36-1.112,0.659-1.985l2.966-8.619h2.206v12.388h-1.58v-10.368l-3.6,10.368h-1.479l-3.583-10.546v10.546H194.77z"/>
	<path style="fill:#152259;" d="M207.876,418.224l4.757-12.388h1.766l5.07,12.388h-1.867l-1.445-3.752h-5.18l-1.36,3.752H207.876z
		 M211.45,413.137h4.2l-1.293-3.431c-0.394-1.042-0.687-1.898-0.878-2.568c-0.158,0.794-0.38,1.583-0.668,2.365L211.45,413.137z"/>
	<path style="fill:#152259;" d="M220.762,418.224v-12.388h1.681l6.507,9.726v-9.726h1.571v12.388h-1.681l-6.507-9.734v9.734H220.762
		z"/>
	<path style="fill:#152259;" d="M242.115,413.88l1.639,0.414c-0.344,1.347-0.962,2.374-1.854,3.08
		c-0.893,0.707-1.985,1.061-3.274,1.061c-1.335,0-2.421-0.271-3.258-0.815c-0.836-0.543-1.473-1.33-1.91-2.361
		s-0.655-2.138-0.655-3.321c0-1.29,0.247-2.415,0.739-3.375c0.493-0.961,1.194-1.69,2.104-2.188c0.91-0.499,1.911-0.748,3.004-0.748
		c1.239,0,2.281,0.315,3.126,0.946c0.845,0.631,1.434,1.519,1.766,2.661l-1.614,0.381c-0.287-0.901-0.704-1.558-1.25-1.969
		s-1.234-0.617-2.062-0.617c-0.952,0-1.748,0.229-2.387,0.685c-0.64,0.456-1.089,1.069-1.348,1.838
		c-0.259,0.769-0.389,1.562-0.389,2.379c0,1.053,0.153,1.973,0.46,2.759s0.785,1.373,1.433,1.762
		c0.647,0.389,1.349,0.583,2.104,0.583c0.918,0,1.695-0.265,2.332-0.794C241.459,415.708,241.89,414.923,242.115,413.88z
		 M238.625,404.197l0.929-1.437h1.724l-1.901,2.366h-1.623l-1.825-2.366h1.741L238.625,404.197z"/>
	<path style="fill:#152259;" d="M245.63,405.076l1.124-2.365h1.994l-1.859,2.365H245.63z M246.053,418.224v-12.388h1.64v12.388
		H246.053z"/>
	<path style="fill:#152259;" d="M250.515,418.224v-12.388h1.639v6.144l6.151-6.144h2.223l-5.197,5.02l5.425,7.368h-2.163
		l-4.411-6.27l-2.028,1.977v4.293H250.515z"/>
	<path style="fill:#152259;" d="M266.966,418.224v-12.388h8.957v1.462h-7.317v3.794h6.853v1.453h-6.853v4.217h7.605v1.462H266.966z"
		/>
	<path style="fill:#152259;" d="M281.627,418.224v-10.926h-4.081v-1.462h9.819v1.462h-4.099v10.926H281.627z"/>
	<path style="fill:#152259;" d="M291.226,418.224l4.757-12.388h1.766l5.07,12.388h-1.867l-1.445-3.752h-5.18l-1.36,3.752H291.226z
		 M294.8,413.137h4.2l-1.293-3.431c-0.394-1.042-0.687-1.898-0.878-2.568c-0.158,0.794-0.38,1.583-0.668,2.365L294.8,413.137z"/>
	<path style="fill:#152259;" d="M304.063,418.224v-12.388h1.639v10.926h6.102v1.462H304.063z"/>
	<path style="fill:#152259;" d="M313.99,418.224v-1.732h1.732v1.732H313.99z"/>
	<g>
	</g>
	<path style="fill:#152259;" d="M452,766l-4.16-10.738h1.538l2.79,7.801c0.225,0.625,0.413,1.211,0.564,1.758
		c0.166-0.586,0.359-1.172,0.578-1.758l2.9-7.801h1.451L453.457,766H452z"/>
	<path style="fill:#152259;" d="M458.965,766v-10.738h7.764v1.268h-6.342v3.289h5.939v1.26h-5.939v3.654h6.592V766H458.965z"/>
	<path style="fill:#152259;" d="M468.963,766v-10.738h4.761c0.957,0,1.685,0.098,2.183,0.289c0.498,0.193,0.896,0.535,1.193,1.023
		c0.299,0.488,0.447,1.027,0.447,1.617c0,0.762-0.246,1.404-0.74,1.928c-0.492,0.521-1.254,0.854-2.285,0.996
		c0.377,0.18,0.662,0.357,0.857,0.533c0.415,0.381,0.809,0.857,1.18,1.43l1.867,2.922h-1.787l-1.421-2.234
		c-0.415-0.645-0.757-1.137-1.025-1.479s-0.509-0.582-0.722-0.719s-0.428-0.232-0.648-0.285c-0.16-0.035-0.424-0.051-0.791-0.051
		h-1.647V766H468.963z M470.384,760.002h3.054c0.65,0,1.158-0.068,1.523-0.203c0.367-0.133,0.645-0.348,0.836-0.645
		c0.189-0.295,0.285-0.615,0.285-0.963c0-0.508-0.185-0.924-0.553-1.252c-0.369-0.326-0.951-0.49-1.747-0.49h-3.398V760.002z"/>
	<path style="fill:#152259;" d="M479.29,762.551l1.341-0.117c0.063,0.537,0.211,0.977,0.442,1.32
		c0.231,0.346,0.593,0.623,1.081,0.836s1.037,0.318,1.647,0.318c0.542,0,1.021-0.08,1.436-0.242c0.415-0.16,0.724-0.381,0.927-0.662
		c0.202-0.281,0.304-0.588,0.304-0.92c0-0.336-0.098-0.631-0.293-0.883c-0.195-0.25-0.518-0.461-0.967-0.633
		c-0.288-0.111-0.925-0.287-1.911-0.523s-1.678-0.461-2.073-0.67c-0.513-0.27-0.896-0.602-1.146-1s-0.377-0.844-0.377-1.336
		c0-0.543,0.153-1.049,0.462-1.521c0.307-0.471,0.756-0.828,1.348-1.072c0.59-0.244,1.247-0.365,1.97-0.365
		c0.796,0,1.498,0.127,2.105,0.383c0.608,0.258,1.075,0.635,1.403,1.133c0.326,0.498,0.502,1.063,0.527,1.691l-1.363,0.104
		c-0.072-0.68-0.32-1.191-0.743-1.539c-0.423-0.346-1.046-0.52-1.871-0.52c-0.859,0-1.485,0.156-1.879,0.473
		c-0.394,0.314-0.589,0.693-0.589,1.139c0,0.385,0.139,0.703,0.417,0.951c0.273,0.25,0.987,0.504,2.143,0.766
		c1.154,0.262,1.946,0.49,2.376,0.686c0.625,0.287,1.087,0.652,1.385,1.094c0.298,0.443,0.447,0.951,0.447,1.527
		c0,0.572-0.164,1.109-0.491,1.615s-0.798,0.898-1.41,1.18s-1.302,0.422-2.069,0.422c-0.971,0-1.785-0.143-2.442-0.426
		s-1.172-0.709-1.545-1.277C479.506,763.91,479.31,763.268,479.29,762.551z"/>
	<path style="fill:#152259;" d="M490.02,766v-10.738h1.422V766H490.02z"/>
	<path style="fill:#152259;" d="M493.514,760.77c0-1.781,0.479-3.178,1.436-4.186s2.192-1.512,3.706-1.512
		c0.991,0,1.885,0.236,2.681,0.711c0.796,0.473,1.402,1.133,1.82,1.98s0.626,1.809,0.626,2.883c0,1.088-0.22,2.063-0.659,2.922
		s-1.063,1.51-1.867,1.951c-0.807,0.441-1.676,0.664-2.607,0.664c-1.012,0-1.914-0.244-2.711-0.732
		c-0.795-0.488-1.398-1.156-1.809-2C493.719,762.605,493.514,761.713,493.514,760.77z M494.979,760.793
		c0,1.293,0.348,2.313,1.043,3.057c0.697,0.744,1.569,1.117,2.619,1.117c1.069,0,1.949-0.375,2.641-1.127
		c0.69-0.752,1.036-1.82,1.036-3.201c0-0.875-0.147-1.637-0.442-2.289c-0.297-0.652-0.729-1.158-1.297-1.516
		c-0.569-0.359-1.207-0.539-1.916-0.539c-1.006,0-1.871,0.346-2.596,1.037C495.342,758.021,494.979,759.176,494.979,760.793z"/>
	<path style="fill:#152259;" d="M505.599,766v-10.738h1.458l5.639,8.432v-8.432h1.363V766h-1.458l-5.64-8.438V766H505.599z"/>
	<path style="fill:#152259;" d="M527.008,764.732V766h-7.098c-0.01-0.318,0.041-0.623,0.154-0.916
		c0.18-0.482,0.469-0.959,0.867-1.428s0.973-1.012,1.725-1.627c1.168-0.957,1.956-1.715,2.366-2.273s0.615-1.088,0.615-1.586
		c0-0.521-0.187-0.963-0.561-1.322c-0.373-0.359-0.86-0.537-1.461-0.537c-0.635,0-1.143,0.189-1.523,0.57s-0.573,0.908-0.579,1.582
		l-1.354-0.139c0.093-1.012,0.442-1.781,1.048-2.311c0.605-0.531,1.418-0.795,2.438-0.795c1.03,0,1.846,0.285,2.446,0.857
		c0.601,0.57,0.9,1.279,0.9,2.123c0,0.43-0.088,0.852-0.264,1.268c-0.176,0.414-0.467,0.852-0.875,1.311s-1.085,1.09-2.032,1.891
		c-0.791,0.664-1.299,1.113-1.523,1.35c-0.225,0.238-0.41,0.477-0.557,0.715H527.008z"/>
	<path style="fill:#152259;" d="M529.16,766v-1.502h1.502V766H529.16z"/>
	<path style="fill:#152259;" d="M532.588,760.705c0-1.27,0.131-2.293,0.393-3.066c0.261-0.773,0.648-1.371,1.164-1.791
		s1.164-0.629,1.945-0.629c0.576,0,1.081,0.115,1.516,0.348s0.793,0.566,1.076,1.004c0.283,0.436,0.506,0.969,0.667,1.596
		s0.241,1.475,0.241,2.539c0,1.26-0.129,2.275-0.388,3.049c-0.259,0.775-0.646,1.373-1.161,1.795s-1.166,0.635-1.951,0.635
		c-1.035,0-1.849-0.371-2.439-1.113C532.942,764.176,532.588,762.721,532.588,760.705z M533.943,760.705
		c0,1.762,0.206,2.936,0.619,3.518c0.412,0.584,0.922,0.877,1.527,0.877s1.113-0.293,1.526-0.879s0.619-1.758,0.619-3.516
		c0-1.768-0.206-2.943-0.619-3.523c-0.413-0.582-0.927-0.871-1.542-0.871c-0.605,0-1.088,0.256-1.449,0.768
		C534.17,757.732,533.943,758.941,533.943,760.705z"/>
	<path style="fill:#152259;" d="M422.9,781.854l1.282-0.176c0.034,0.82,0.188,1.381,0.462,1.684s0.651,0.455,1.135,0.455
		c0.356,0,0.664-0.082,0.923-0.246s0.437-0.385,0.534-0.666s0.146-0.729,0.146-1.344v-7.398h1.422v7.318
		c0,0.898-0.109,1.594-0.326,2.086c-0.218,0.494-0.563,0.869-1.033,1.129c-0.471,0.258-1.023,0.389-1.658,0.389
		c-0.943,0-1.664-0.271-2.165-0.814C423.121,783.729,422.881,782.922,422.9,781.854z"/>
	<path style="fill:#152259;" d="M429.947,784.9l4.123-10.738h1.531l4.395,10.738h-1.619l-1.252-3.252h-4.49l-1.18,3.252H429.947z
		 M433.045,780.49h3.641l-1.121-2.973c-0.342-0.904-0.596-1.646-0.762-2.227c-0.137,0.688-0.33,1.371-0.578,2.051L433.045,780.49z"
		/>
	<path style="fill:#152259;" d="M441.116,784.9v-10.738h1.458l5.639,8.432v-8.432h1.363V784.9h-1.458l-5.64-8.438v8.438H441.116z"/>
	<path style="fill:#152259;" d="M459.01,774.162h1.42v6.205c0,1.078-0.121,1.936-0.365,2.57s-0.686,1.15-1.322,1.549
		s-1.474,0.598-2.509,0.598c-1.006,0-1.829-0.174-2.468-0.521c-0.641-0.346-1.097-0.848-1.37-1.504
		c-0.273-0.658-0.41-1.555-0.41-2.691v-6.205h1.421v6.197c0,0.932,0.086,1.619,0.26,2.061c0.174,0.443,0.471,0.783,0.895,1.023
		c0.422,0.238,0.938,0.357,1.549,0.357c1.045,0,1.789-0.236,2.233-0.709c0.444-0.475,0.667-1.385,0.667-2.732V774.162z"/>
	<path style="fill:#152259;" d="M462.818,784.9v-10.738h4.76c0.957,0,1.686,0.098,2.184,0.289c0.498,0.193,0.896,0.535,1.193,1.023
		s0.447,1.027,0.447,1.617c0,0.762-0.247,1.404-0.74,1.928c-0.493,0.521-1.255,0.854-2.285,0.996
		c0.376,0.18,0.662,0.357,0.857,0.533c0.414,0.381,0.808,0.857,1.179,1.43l1.868,2.922h-1.787l-1.422-2.234
		c-0.414-0.645-0.756-1.137-1.025-1.479c-0.268-0.342-0.509-0.582-0.721-0.719c-0.213-0.137-0.429-0.232-0.648-0.285
		c-0.161-0.035-0.425-0.051-0.791-0.051h-1.648v4.768H462.818z M464.238,778.902h3.055c0.649,0,1.157-0.068,1.523-0.203
		c0.366-0.133,0.645-0.348,0.835-0.645c0.19-0.295,0.286-0.615,0.286-0.963c0-0.508-0.186-0.924-0.554-1.252
		c-0.368-0.326-0.95-0.49-1.747-0.49h-3.398V778.902z"/>
	<path style="fill:#152259;" d="M472.449,784.9l4.123-10.738h1.531l4.395,10.738h-1.619l-1.252-3.252h-4.49l-1.179,3.252H472.449z
		 M475.547,780.49h3.641l-1.121-2.973c-0.342-0.904-0.596-1.646-0.762-2.227c-0.137,0.688-0.329,1.371-0.578,2.051L475.547,780.49z"
		/>
	<path style="fill:#152259;" d="M483.655,784.9v-10.738h4.761c0.957,0,1.685,0.098,2.183,0.289c0.498,0.193,0.896,0.535,1.194,1.023
		c0.297,0.488,0.446,1.027,0.446,1.617c0,0.762-0.247,1.404-0.739,1.928c-0.494,0.521-1.256,0.854-2.285,0.996
		c0.375,0.18,0.661,0.357,0.856,0.533c0.415,0.381,0.808,0.857,1.179,1.43l1.868,2.922h-1.787l-1.421-2.234
		c-0.415-0.645-0.757-1.137-1.025-1.479s-0.51-0.582-0.721-0.719c-0.213-0.137-0.43-0.232-0.648-0.285
		c-0.162-0.035-0.426-0.051-0.791-0.051h-1.648v4.768H483.655z M485.076,778.902h3.055c0.648,0,1.156-0.068,1.523-0.203
		c0.365-0.133,0.645-0.348,0.834-0.645c0.191-0.295,0.286-0.615,0.286-0.963c0-0.508-0.185-0.924-0.554-1.252
		c-0.368-0.326-0.95-0.49-1.746-0.49h-3.398V778.902z"/>
	<path style="fill:#152259;" d="M497.22,784.9v-4.549l-4.138-6.189h1.729l2.116,3.238c0.391,0.605,0.755,1.211,1.091,1.816
		c0.322-0.563,0.713-1.193,1.172-1.896l2.08-3.158h1.656l-4.285,6.189v4.549H497.22z"/>
	<path style="fill:#152259;" d="M514.49,783.633v1.268h-7.098c-0.01-0.318,0.042-0.623,0.154-0.916
		c0.181-0.482,0.47-0.959,0.867-1.428c0.398-0.469,0.974-1.012,1.726-1.627c1.167-0.957,1.956-1.715,2.366-2.273
		s0.615-1.088,0.615-1.586c0-0.521-0.188-0.963-0.561-1.322s-0.861-0.537-1.461-0.537c-0.635,0-1.143,0.189-1.523,0.57
		s-0.574,0.908-0.579,1.582l-1.354-0.139c0.092-1.012,0.441-1.781,1.047-2.311c0.605-0.531,1.418-0.795,2.439-0.795
		c1.029,0,1.846,0.285,2.445,0.857c0.602,0.57,0.901,1.279,0.901,2.123c0,0.43-0.088,0.852-0.264,1.268
		c-0.176,0.414-0.468,0.852-0.876,1.311c-0.407,0.459-1.084,1.09-2.031,1.891c-0.791,0.664-1.299,1.113-1.523,1.35
		c-0.225,0.238-0.41,0.477-0.557,0.715H514.49z"/>
	<path style="fill:#152259;" d="M515.904,779.605c0-1.27,0.13-2.293,0.392-3.066c0.261-0.773,0.649-1.371,1.164-1.791
		s1.163-0.629,1.944-0.629c0.576,0,1.082,0.115,1.517,0.348s0.794,0.566,1.077,1.004c0.283,0.436,0.505,0.969,0.666,1.596
		s0.242,1.475,0.242,2.539c0,1.26-0.13,2.275-0.389,3.049c-0.259,0.775-0.646,1.373-1.161,1.795s-1.165,0.635-1.952,0.635
		c-1.035,0-1.848-0.371-2.438-1.113C516.258,783.076,515.904,781.621,515.904,779.605z M517.259,779.605
		c0,1.762,0.206,2.936,0.619,3.518c0.412,0.584,0.921,0.877,1.526,0.877s1.115-0.293,1.527-0.879s0.619-1.758,0.619-3.516
		c0-1.768-0.207-2.943-0.619-3.523c-0.412-0.582-0.926-0.871-1.541-0.871c-0.605,0-1.09,0.256-1.451,0.768
		C517.486,776.633,517.259,777.842,517.259,779.605z"/>
	<path style="fill:#152259;" d="M531.175,783.633v1.268h-7.097c-0.01-0.318,0.041-0.623,0.153-0.916
		c0.181-0.482,0.47-0.959,0.868-1.428c0.397-0.469,0.973-1.012,1.725-1.627c1.167-0.957,1.955-1.715,2.365-2.273
		s0.615-1.088,0.615-1.586c0-0.521-0.186-0.963-0.561-1.322c-0.373-0.359-0.859-0.537-1.461-0.537c-0.635,0-1.143,0.189-1.523,0.57
		s-0.573,0.908-0.578,1.582l-1.355-0.139c0.094-1.012,0.442-1.781,1.048-2.311c0.605-0.531,1.419-0.795,2.438-0.795
		c1.031,0,1.846,0.285,2.447,0.857c0.6,0.57,0.9,1.279,0.9,2.123c0,0.43-0.088,0.852-0.264,1.268
		c-0.176,0.414-0.468,0.852-0.875,1.311c-0.408,0.459-1.086,1.09-2.033,1.891c-0.791,0.664-1.299,1.113-1.523,1.35
		c-0.225,0.238-0.41,0.477-0.557,0.715H531.175z"/>
	<path style="fill:#152259;" d="M532.588,779.605c0-1.27,0.131-2.293,0.393-3.066c0.261-0.773,0.648-1.371,1.164-1.791
		s1.164-0.629,1.945-0.629c0.576,0,1.081,0.115,1.516,0.348s0.793,0.566,1.076,1.004c0.283,0.436,0.506,0.969,0.667,1.596
		s0.241,1.475,0.241,2.539c0,1.26-0.129,2.275-0.388,3.049c-0.259,0.775-0.646,1.373-1.161,1.795s-1.166,0.635-1.951,0.635
		c-1.035,0-1.849-0.371-2.439-1.113C532.942,783.076,532.588,781.621,532.588,779.605z M533.943,779.605
		c0,1.762,0.206,2.936,0.619,3.518c0.412,0.584,0.922,0.877,1.527,0.877s1.113-0.293,1.526-0.879s0.619-1.758,0.619-3.516
		c0-1.768-0.206-2.943-0.619-3.523c-0.413-0.582-0.927-0.871-1.542-0.871c-0.605,0-1.088,0.256-1.449,0.768
		C534.17,776.633,533.943,777.842,533.943,779.605z"/>
</g>
<g id="lines">
</g>
</svg>
